<svg width="286" height="46" viewBox="0 0 286 46" fill="none" xmlns="http://www.w3.org/2000/svg">
<path d="M16.75 37.8438C13.4375 37.8438 10.5859 37.125 8.19531 35.6875C5.80469 34.2344 3.96094 32.1797 2.66406 29.5234C1.38281 26.8672 0.742188 23.7266 0.742188 20.1016V20.0547C0.742188 16.4141 1.39062 13.2734 2.6875 10.6328C4 7.97656 5.85156 5.92969 8.24219 4.49219C10.6484 3.05469 13.4844 2.33594 16.75 2.33594C20.0312 2.33594 22.8672 3.05469 25.2578 4.49219C27.6484 5.92969 29.4922 7.97656 30.7891 10.6328C32.0859 13.2891 32.7344 16.4297 32.7344 20.0547V20.1016C32.7344 23.7266 32.0859 26.8672 30.7891 29.5234C29.5078 32.1797 27.6641 34.2344 25.2578 35.6875C22.8672 37.125 20.0312 37.8438 16.75 37.8438ZM16.75 32.6172C18.75 32.6172 20.4844 32.1016 21.9531 31.0703C23.4375 30.0391 24.5781 28.5859 25.375 26.7109C26.1719 24.8359 26.5703 22.6328 26.5703 20.1016V20.0547C26.5703 17.5078 26.1641 15.3047 25.3516 13.4453C24.5547 11.5703 23.4219 10.125 21.9531 9.10938C20.4844 8.07812 18.75 7.5625 16.75 7.5625C14.75 7.5625 13.0078 8.07812 11.5234 9.10938C10.0547 10.125 8.91406 11.5703 8.10156 13.4453C7.30469 15.3047 6.90625 17.5078 6.90625 20.0547V20.1016C6.90625 22.6328 7.30469 24.8359 8.10156 26.7109C8.89844 28.5859 10.0312 30.0391 11.5 31.0703C12.9688 32.1016 14.7188 32.6172 16.75 32.6172ZM123.75 37V3.17969H137.414C141.039 3.17969 143.883 4.125 145.945 6.01562C148.008 7.90625 149.039 10.4609 149.039 13.6797V13.7266C149.039 15.9609 148.477 17.9453 147.352 19.6797C146.227 21.3984 144.664 22.625 142.664 23.3594L150.047 37H143.133L136.5 24.2734H129.797V37H123.75ZM129.797 19.6328H136.781C138.703 19.6328 140.188 19.125 141.234 18.1094C142.297 17.0938 142.828 15.6797 142.828 13.8672V13.8203C142.828 12.0547 142.281 10.6562 141.188 9.625C140.094 8.59375 138.586 8.07812 136.664 8.07812H129.797V19.6328Z" fill="#3BB4B1"/>
<path d="M38.0625 45.5078V11.3828H43.8984V15.3906H44.2969C45 14 46.0234 12.9141 47.3672 12.1328C48.7109 11.3516 50.2812 10.9609 52.0781 10.9609C54.2188 10.9609 56.0781 11.5 57.6562 12.5781C59.2344 13.6562 60.4531 15.1875 61.3125 17.1719C62.1719 19.1406 62.6016 21.4766 62.6016 24.1797V24.2266C62.6016 28.3047 61.6562 31.5234 59.7656 33.8828C57.8906 36.2422 55.3281 37.4219 52.0781 37.4219C50.3281 37.4219 48.7578 37.0234 47.3672 36.2266C45.9922 35.4141 44.9688 34.3125 44.2969 32.9219H43.8984V45.5078H38.0625ZM50.25 32.5C52.2344 32.5 53.7969 31.7656 54.9375 30.2969C56.0781 28.8125 56.6484 26.7891 56.6484 24.2266V24.1797C56.6484 21.6016 56.0781 19.5781 54.9375 18.1094C53.8125 16.625 52.25 15.8828 50.25 15.8828C48.2656 15.8828 46.6953 16.625 45.5391 18.1094C44.3984 19.5781 43.8281 21.5938 43.8281 24.1562V24.2031C43.8281 26.7812 44.3984 28.8125 45.5391 30.2969C46.6953 31.7656 48.2656 32.5 50.25 32.5ZM78.4531 37.5156C75.9062 37.5156 73.7188 36.9766 71.8906 35.8984C70.0625 34.8203 68.6562 33.2891 67.6719 31.3047C66.7031 29.3203 66.2188 26.9688 66.2188 24.25V24.2266C66.2188 21.5391 66.7031 19.1953 67.6719 17.1953C68.6562 15.1953 70.0469 13.6484 71.8438 12.5547C73.6406 11.4453 75.75 10.8906 78.1719 10.8906C80.5938 10.8906 82.6875 11.4219 84.4531 12.4844C86.2188 13.5469 87.5781 15.0469 88.5312 16.9844C89.4844 18.9062 89.9609 21.1562 89.9609 23.7344V25.6562H72.0547C72.0859 27.9531 72.6797 29.7422 73.8359 31.0234C75.0078 32.2891 76.5859 32.9219 78.5703 32.9219C80.1484 32.9219 81.3906 32.6094 82.2969 31.9844C83.2188 31.3594 83.8203 30.75 84.1016 30.1562L84.1719 29.9922H89.7266L89.6562 30.2031C89.3906 31.3125 88.8125 32.4297 87.9219 33.5547C87.0469 34.6797 85.8281 35.625 84.2656 36.3906C82.7031 37.1406 80.7656 37.5156 78.4531 37.5156ZM78.2422 15.4609C76.6172 15.4609 75.2422 16 74.1172 17.0781C72.9922 18.1562 72.3203 19.7109 72.1016 21.7422H84.2656C84.0625 19.6328 83.4141 18.0625 82.3203 17.0312C81.2266 15.9844 79.8672 15.4609 78.2422 15.4609ZM94.7969 37V11.3828H100.633V15.2969H101.031C101.641 13.9375 102.562 12.8672 103.797 12.0859C105.031 11.2891 106.57 10.8906 108.414 10.8906C111.273 10.8906 113.461 11.7187 114.977 13.375C116.492 15.0312 117.25 17.3828 117.25 20.4297V37H111.414V21.7891C111.414 17.7891 109.695 15.7891 106.258 15.7891C104.523 15.7891 103.148 16.3594 102.133 17.5C101.133 18.625 100.633 20.1484 100.633 22.0703V37H94.7969ZM157.766 7.09375C156.812 7.09375 155.992 6.75781 155.305 6.08594C154.617 5.41406 154.273 4.60156 154.273 3.64844C154.273 2.69531 154.617 1.88281 155.305 1.21094C155.992 0.539062 156.812 0.203125 157.766 0.203125C158.719 0.203125 159.531 0.539062 160.203 1.21094C160.891 1.88281 161.234 2.69531 161.234 3.64844C161.234 4.60156 160.891 5.41406 160.203 6.08594C159.531 6.75781 158.719 7.09375 157.766 7.09375ZM154.836 37V11.3828H160.672V37H154.836ZM166.844 45.5078V11.3828H172.68V15.3906H173.078C173.781 14 174.805 12.9141 176.148 12.1328C177.492 11.3516 179.062 10.9609 180.859 10.9609C183 10.9609 184.859 11.5 186.438 12.5781C188.016 13.6562 189.234 15.1875 190.094 17.1719C190.953 19.1406 191.383 21.4766 191.383 24.1797V24.2266C191.383 28.3047 190.438 31.5234 188.547 33.8828C186.672 36.2422 184.109 37.4219 180.859 37.4219C179.109 37.4219 177.539 37.0234 176.148 36.2266C174.773 35.4141 173.75 34.3125 173.078 32.9219H172.68V45.5078H166.844ZM179.031 32.5C181.016 32.5 182.578 31.7656 183.719 30.2969C184.859 28.8125 185.43 26.7891 185.43 24.2266V24.1797C185.43 21.6016 184.859 19.5781 183.719 18.1094C182.594 16.625 181.031 15.8828 179.031 15.8828C177.047 15.8828 175.477 16.625 174.32 18.1094C173.18 19.5781 172.609 21.5938 172.609 24.1562V24.2031C172.609 26.7812 173.18 28.8125 174.32 30.2969C175.477 31.7656 177.047 32.5 179.031 32.5ZM196.266 45.5078V11.3828H202.102V15.3906H202.5C203.203 14 204.227 12.9141 205.57 12.1328C206.914 11.3516 208.484 10.9609 210.281 10.9609C212.422 10.9609 214.281 11.5 215.859 12.5781C217.438 13.6562 218.656 15.1875 219.516 17.1719C220.375 19.1406 220.805 21.4766 220.805 24.1797V24.2266C220.805 28.3047 219.859 31.5234 217.969 33.8828C216.094 36.2422 213.531 37.4219 210.281 37.4219C208.531 37.4219 206.961 37.0234 205.57 36.2266C204.195 35.4141 203.172 34.3125 202.5 32.9219H202.102V45.5078H196.266ZM208.453 32.5C210.438 32.5 212 31.7656 213.141 30.2969C214.281 28.8125 214.852 26.7891 214.852 24.2266V24.1797C214.852 21.6016 214.281 19.5781 213.141 18.1094C212.016 16.625 210.453 15.8828 208.453 15.8828C206.469 15.8828 204.898 16.625 203.742 18.1094C202.602 19.5781 202.031 21.5938 202.031 24.1562V24.2031C202.031 26.7812 202.602 28.8125 203.742 30.2969C204.898 31.7656 206.469 32.5 208.453 32.5ZM225.922 37V1.46875H231.758V37H225.922ZM249.109 37.5156C246.562 37.5156 244.375 36.9766 242.547 35.8984C240.719 34.8203 239.312 33.2891 238.328 31.3047C237.359 29.3203 236.875 26.9688 236.875 24.25V24.2266C236.875 21.5391 237.359 19.1953 238.328 17.1953C239.312 15.1953 240.703 13.6484 242.5 12.5547C244.297 11.4453 246.406 10.8906 248.828 10.8906C251.25 10.8906 253.344 11.4219 255.109 12.4844C256.875 13.5469 258.234 15.0469 259.188 16.9844C260.141 18.9062 260.617 21.1562 260.617 23.7344V25.6562H242.711C242.742 27.9531 243.336 29.7422 244.492 31.0234C245.664 32.2891 247.242 32.9219 249.227 32.9219C250.805 32.9219 252.047 32.6094 252.953 31.9844C253.875 31.3594 254.477 30.75 254.758 30.1562L254.828 29.9922H260.383L260.312 30.2031C260.047 31.3125 259.469 32.4297 258.578 33.5547C257.703 34.6797 256.484 35.625 254.922 36.3906C253.359 37.1406 251.422 37.5156 249.109 37.5156ZM248.898 15.4609C247.273 15.4609 245.898 16 244.773 17.0781C243.648 18.1562 242.977 19.7109 242.758 21.7422H254.922C254.719 19.6328 254.07 18.0625 252.977 17.0312C251.883 15.9844 250.523 15.4609 248.898 15.4609ZM275.133 37.5156C271.883 37.5156 269.305 36.8359 267.398 35.4766C265.508 34.1172 264.438 32.3516 264.188 30.1797V30.1328H269.977L270 30.1797C270.312 31.0703 270.898 31.7969 271.758 32.3594C272.617 32.9219 273.773 33.2031 275.227 33.2031C276.68 33.2031 277.859 32.9062 278.766 32.3125C279.688 31.7188 280.148 30.9375 280.148 29.9688V29.9219C280.148 29.1719 279.844 28.5469 279.234 28.0469C278.625 27.5312 277.617 27.1172 276.211 26.8047L272.062 25.8672C267.266 24.8047 264.867 22.4219 264.867 18.7188V18.6953C264.867 17.1641 265.297 15.8125 266.156 14.6406C267.031 13.4531 268.242 12.5312 269.789 11.875C271.336 11.2188 273.117 10.8906 275.133 10.8906C278.242 10.8906 280.695 11.5781 282.492 12.9531C284.289 14.3281 285.281 16.0547 285.469 18.1328V18.1797H279.984L279.961 18.1094C279.742 17.3125 279.219 16.625 278.391 16.0469C277.578 15.4688 276.484 15.1797 275.109 15.1797C273.812 15.1797 272.742 15.4766 271.898 16.0703C271.055 16.6484 270.633 17.4141 270.633 18.3672V18.3906C270.633 19.1406 270.93 19.7578 271.523 20.2422C272.117 20.7109 273.102 21.1094 274.477 21.4375L278.625 22.3516C281.141 22.9141 283 23.75 284.203 24.8594C285.406 25.9688 286.008 27.4609 286.008 29.3359V29.3828C286.008 31.0078 285.539 32.4297 284.602 33.6484C283.664 34.8672 282.375 35.8203 280.734 36.5078C279.094 37.1797 277.227 37.5156 275.133 37.5156Z" fill="black"/>
</svg>
