<svg width="1424" height="116" viewBox="0 0 1424 116" fill="none" xmlns="http://www.w3.org/2000/svg">
<rect width="1424" height="116" rx="30" fill="black"/>
<path d="M123.344 52.9858C123.238 52.0445 122.8 51.3153 122.031 50.7983C121.262 50.2746 120.295 50.0128 119.128 50.0128C118.293 50.0128 117.57 50.1454 116.96 50.4105C116.35 50.669 115.876 51.027 115.538 51.4844C115.207 51.9351 115.041 52.4489 115.041 53.0256C115.041 53.5095 115.154 53.9271 115.379 54.2784C115.611 54.6297 115.913 54.9247 116.284 55.1634C116.662 55.3954 117.066 55.5909 117.497 55.75C117.928 55.9025 118.342 56.0284 118.74 56.1278L120.729 56.6449C121.378 56.804 122.045 57.0194 122.727 57.2912C123.41 57.563 124.043 57.9209 124.626 58.3651C125.21 58.8092 125.68 59.3594 126.038 60.0156C126.403 60.6719 126.585 61.4574 126.585 62.3722C126.585 63.5256 126.287 64.5497 125.69 65.4446C125.1 66.3395 124.242 67.0455 123.115 67.5625C121.995 68.0795 120.639 68.3381 119.048 68.3381C117.524 68.3381 116.205 68.0961 115.091 67.6122C113.977 67.1283 113.106 66.4422 112.476 65.554C111.846 64.6591 111.498 63.5985 111.432 62.3722H114.514C114.574 63.108 114.813 63.7211 115.23 64.2116C115.654 64.6955 116.195 65.0568 116.851 65.2955C117.514 65.5275 118.24 65.6435 119.028 65.6435C119.897 65.6435 120.669 65.5076 121.345 65.2358C122.028 64.9574 122.565 64.5729 122.956 64.0824C123.347 63.5852 123.543 63.0052 123.543 62.3423C123.543 61.7391 123.37 61.2453 123.026 60.8608C122.688 60.4763 122.227 60.1581 121.643 59.9062C121.067 59.6544 120.414 59.4323 119.685 59.2401L117.278 58.5838C115.648 58.1397 114.355 57.4867 113.401 56.625C112.453 55.7633 111.979 54.6231 111.979 53.2045C111.979 52.0312 112.297 51.0071 112.933 50.1321C113.57 49.2571 114.431 48.5777 115.518 48.0938C116.606 47.6032 117.832 47.358 119.197 47.358C120.576 47.358 121.793 47.5999 122.847 48.0838C123.907 48.5677 124.742 49.2339 125.352 50.0824C125.962 50.9242 126.28 51.892 126.307 52.9858H123.344ZM136.147 52.7273V55.1136H127.805V52.7273H136.147ZM130.042 49.0682H133.015V63.5156C133.015 64.0923 133.101 64.5265 133.274 64.8182C133.446 65.1032 133.668 65.2988 133.94 65.4048C134.218 65.5043 134.52 65.554 134.845 65.554C135.083 65.554 135.292 65.5374 135.471 65.5043C135.65 65.4711 135.789 65.4446 135.889 65.4247L136.426 67.8807C136.253 67.947 136.008 68.0133 135.69 68.0795C135.372 68.1525 134.974 68.1922 134.497 68.1989C133.715 68.2121 132.985 68.0729 132.309 67.7812C131.633 67.4896 131.086 67.0388 130.669 66.429C130.251 65.8191 130.042 65.0535 130.042 64.1321V49.0682ZM138.436 68V52.7273H141.409V68H138.436ZM139.938 50.3707C139.42 50.3707 138.976 50.1984 138.605 49.8537C138.241 49.5024 138.058 49.0848 138.058 48.6009C138.058 48.1103 138.241 47.6927 138.605 47.348C138.976 46.9967 139.42 46.821 139.938 46.821C140.455 46.821 140.895 46.9967 141.26 47.348C141.631 47.6927 141.817 48.1103 141.817 48.6009C141.817 49.0848 141.631 49.5024 141.26 49.8537C140.895 50.1984 140.455 50.3707 139.938 50.3707ZM147.382 47.6364V68H144.409V47.6364H147.382ZM153.354 47.6364V68H150.381V47.6364H153.354ZM169.197 68.3082C167.719 68.3082 166.446 67.9735 165.379 67.304C164.319 66.6278 163.503 65.6965 162.933 64.5099C162.363 63.3234 162.078 61.9645 162.078 60.4332C162.078 58.8821 162.37 57.5133 162.953 56.3267C163.536 55.1335 164.358 54.2022 165.419 53.5327C166.48 52.8632 167.729 52.5284 169.168 52.5284C170.328 52.5284 171.362 52.7438 172.27 53.1747C173.178 53.599 173.911 54.1955 174.467 54.9645C175.031 55.7334 175.366 56.6316 175.472 57.6591H172.578C172.419 56.9432 172.054 56.3267 171.484 55.8097C170.921 55.2926 170.165 55.0341 169.217 55.0341C168.389 55.0341 167.663 55.2528 167.04 55.6903C166.423 56.1212 165.943 56.7377 165.598 57.5398C165.253 58.3352 165.081 59.2765 165.081 60.3636C165.081 61.4773 165.25 62.4384 165.588 63.2472C165.926 64.0559 166.403 64.6823 167.02 65.1264C167.643 65.5705 168.375 65.7926 169.217 65.7926C169.781 65.7926 170.291 65.6899 170.749 65.4844C171.213 65.2723 171.6 64.9706 171.912 64.5795C172.23 64.1884 172.452 63.7178 172.578 63.1676H175.472C175.366 64.1553 175.044 65.0369 174.507 65.8125C173.97 66.5881 173.251 67.1979 172.349 67.642C171.455 68.0862 170.404 68.3082 169.197 68.3082ZM184.084 68.3082C182.652 68.3082 181.403 67.9801 180.336 67.3239C179.268 66.6676 178.44 65.7495 177.85 64.5696C177.26 63.3897 176.965 62.0109 176.965 60.4332C176.965 58.849 177.26 57.4635 177.85 56.277C178.44 55.0904 179.268 54.169 180.336 53.5128C181.403 52.8565 182.652 52.5284 184.084 52.5284C185.516 52.5284 186.766 52.8565 187.833 53.5128C188.9 54.169 189.729 55.0904 190.319 56.277C190.908 57.4635 191.203 58.849 191.203 60.4332C191.203 62.0109 190.908 63.3897 190.319 64.5696C189.729 65.7495 188.9 66.6676 187.833 67.3239C186.766 67.9801 185.516 68.3082 184.084 68.3082ZM184.094 65.8125C185.022 65.8125 185.791 65.5672 186.401 65.0767C187.011 64.5862 187.462 63.9332 187.753 63.1179C188.051 62.3026 188.201 61.4044 188.201 60.4233C188.201 59.4489 188.051 58.554 187.753 57.7386C187.462 56.9167 187.011 56.2571 186.401 55.7599C185.791 55.2628 185.022 55.0142 184.094 55.0142C183.159 55.0142 182.384 55.2628 181.767 55.7599C181.158 56.2571 180.703 56.9167 180.405 57.7386C180.114 58.554 179.968 59.4489 179.968 60.4233C179.968 61.4044 180.114 62.3026 180.405 63.1179C180.703 63.9332 181.158 64.5862 181.767 65.0767C182.384 65.5672 183.159 65.8125 184.094 65.8125ZM196.495 58.9318V68H193.522V52.7273H196.376V55.2131H196.565C196.916 54.4044 197.466 53.7547 198.215 53.2642C198.971 52.7737 199.922 52.5284 201.069 52.5284C202.11 52.5284 203.021 52.7472 203.803 53.1847C204.585 53.6155 205.192 54.2585 205.623 55.1136C206.054 55.9687 206.269 57.026 206.269 58.2855V68H203.296V58.6435C203.296 57.5365 203.008 56.6714 202.431 56.0483C201.854 55.4186 201.062 55.1037 200.055 55.1037C199.365 55.1037 198.752 55.2528 198.215 55.5511C197.685 55.8494 197.264 56.2869 196.952 56.8636C196.647 57.4337 196.495 58.1231 196.495 58.9318ZM216.525 52.7273V55.1136H207.894V52.7273H216.525ZM210.261 68V50.9574C210.261 50.0028 210.469 49.2107 210.887 48.581C211.305 47.9446 211.858 47.4706 212.548 47.1591C213.237 46.8409 213.986 46.6818 214.795 46.6818C215.391 46.6818 215.902 46.7315 216.326 46.831C216.75 46.9238 217.065 47.0099 217.271 47.0895L216.575 49.4957C216.435 49.456 216.256 49.4096 216.038 49.3565C215.819 49.2969 215.554 49.267 215.242 49.267C214.52 49.267 214.003 49.446 213.691 49.804C213.386 50.1619 213.234 50.679 213.234 51.3551V68H210.261ZM228.267 61.6662V52.7273H231.25V68H228.327V65.3551H228.168C227.816 66.1705 227.253 66.8499 226.477 67.3935C225.708 67.9304 224.75 68.1989 223.604 68.1989C222.623 68.1989 221.754 67.9834 220.999 67.5526C220.25 67.1151 219.66 66.4688 219.229 65.6136C218.804 64.7585 218.592 63.7012 218.592 62.4418V52.7273H221.565V62.0838C221.565 63.1245 221.854 63.9531 222.43 64.5696C223.007 65.1861 223.756 65.4943 224.678 65.4943C225.234 65.4943 225.788 65.3551 226.338 65.0767C226.895 64.7983 227.356 64.3774 227.72 63.8139C228.091 63.2505 228.274 62.5346 228.267 61.6662ZM245.689 56.456L242.995 56.9332C242.882 56.5885 242.703 56.2604 242.458 55.9489C242.219 55.6373 241.894 55.3821 241.483 55.1832C241.072 54.9844 240.559 54.8849 239.942 54.8849C239.1 54.8849 238.398 55.0739 237.834 55.4517C237.271 55.8229 236.989 56.3035 236.989 56.8935C236.989 57.4039 237.178 57.8149 237.556 58.1264C237.934 58.438 238.543 58.6932 239.385 58.892L241.811 59.4489C243.217 59.7737 244.264 60.2741 244.953 60.9503C245.643 61.6264 245.988 62.5047 245.988 63.5852C245.988 64.5 245.722 65.3153 245.192 66.0312C244.668 66.7405 243.936 67.2973 242.995 67.7017C242.06 68.1061 240.976 68.3082 239.743 68.3082C238.033 68.3082 236.638 67.9437 235.557 67.2145C234.477 66.4787 233.814 65.4347 233.569 64.0824L236.442 63.6449C236.621 64.3939 236.989 64.9607 237.546 65.3452C238.103 65.723 238.828 65.9119 239.723 65.9119C240.698 65.9119 241.477 65.7098 242.06 65.3054C242.643 64.8944 242.935 64.3939 242.935 63.804C242.935 63.3267 242.756 62.9257 242.398 62.6009C242.047 62.276 241.507 62.0308 240.777 61.8651L238.192 61.2983C236.767 60.9735 235.713 60.4564 235.03 59.7472C234.354 59.0379 234.016 58.1397 234.016 57.0526C234.016 56.151 234.268 55.3622 234.772 54.6861C235.275 54.0099 235.971 53.483 236.86 53.1051C237.748 52.7206 238.766 52.5284 239.912 52.5284C241.563 52.5284 242.862 52.8864 243.81 53.6023C244.758 54.3116 245.384 55.2628 245.689 56.456ZM254.839 68.3082C253.334 68.3082 252.038 67.9867 250.951 67.3438C249.871 66.6941 249.035 65.7827 248.445 64.6094C247.862 63.4295 247.57 62.0473 247.57 60.4631C247.57 58.8987 247.862 57.5199 248.445 56.3267C249.035 55.1335 249.857 54.2022 250.911 53.5327C251.972 52.8632 253.211 52.5284 254.63 52.5284C255.492 52.5284 256.327 52.6709 257.136 52.956C257.944 53.241 258.67 53.6884 259.313 54.2983C259.956 54.9081 260.463 55.7003 260.835 56.6747C261.206 57.6425 261.391 58.8191 261.391 60.2045V61.2585H249.251V59.0312H258.478C258.478 58.2491 258.319 57.5563 258.001 56.9531C257.683 56.3433 257.235 55.8627 256.658 55.5114C256.088 55.16 255.419 54.9844 254.65 54.9844C253.815 54.9844 253.085 55.1899 252.462 55.6009C251.846 56.0052 251.369 56.5355 251.031 57.1918C250.699 57.8414 250.533 58.5473 250.533 59.3097V61.0497C250.533 62.0705 250.712 62.9389 251.07 63.6548C251.435 64.3707 251.942 64.9176 252.592 65.2955C253.241 65.6667 254 65.8523 254.869 65.8523C255.432 65.8523 255.946 65.7727 256.41 65.6136C256.874 65.4479 257.275 65.2027 257.613 64.8778C257.951 64.553 258.21 64.152 258.388 63.6747L261.202 64.1818C260.977 65.0104 260.573 65.7363 259.989 66.3594C259.413 66.9759 258.687 67.4564 257.812 67.8011C256.943 68.1392 255.952 68.3082 254.839 68.3082ZM269.407 68.2983C268.174 68.2983 267.074 67.9834 266.106 67.3537C265.145 66.7173 264.389 65.8125 263.839 64.6392C263.296 63.4593 263.024 62.044 263.024 60.3935C263.024 58.7429 263.299 57.331 263.849 56.1577C264.406 54.9844 265.168 54.0862 266.136 53.4631C267.104 52.84 268.201 52.5284 269.427 52.5284C270.375 52.5284 271.137 52.6875 271.714 53.0057C272.297 53.3172 272.748 53.6818 273.066 54.0994C273.391 54.517 273.643 54.8849 273.822 55.2031H274.001V47.6364H276.974V68H274.071V65.6236H273.822C273.643 65.9484 273.385 66.3196 273.047 66.7372C272.715 67.1548 272.258 67.5194 271.674 67.831C271.091 68.1425 270.335 68.2983 269.407 68.2983ZM270.064 65.7628C270.919 65.7628 271.641 65.5374 272.231 65.0866C272.828 64.6293 273.279 63.9962 273.583 63.1875C273.895 62.3788 274.051 61.4375 274.051 60.3636C274.051 59.303 273.898 58.375 273.593 57.5795C273.288 56.7841 272.841 56.1643 272.251 55.7202C271.661 55.276 270.932 55.054 270.064 55.054C269.169 55.054 268.423 55.286 267.826 55.75C267.23 56.214 266.779 56.8471 266.474 57.6491C266.176 58.4512 266.027 59.3561 266.027 60.3636C266.027 61.3845 266.179 62.3026 266.484 63.1179C266.789 63.9332 267.24 64.5795 267.836 65.0568C268.44 65.5275 269.182 65.7628 270.064 65.7628ZM283.469 62.1435V61.9545C283.482 60.7216 283.605 59.7405 283.837 59.0114C284.075 58.2822 284.413 57.6922 284.851 57.2415C285.288 56.7907 285.815 56.3797 286.432 56.0085C286.83 55.7566 287.188 55.4749 287.506 55.1634C287.824 54.8518 288.076 54.4938 288.261 54.0895C288.447 53.6851 288.54 53.2377 288.54 52.7472C288.54 52.1572 288.401 51.6468 288.122 51.2159C287.844 50.785 287.473 50.4536 287.009 50.2216C286.551 49.983 286.041 49.8636 285.477 49.8636C284.967 49.8636 284.48 49.9697 284.016 50.1818C283.552 50.3939 283.167 50.7254 282.862 51.1761C282.557 51.6203 282.382 52.1937 282.335 52.8963H279.312C279.359 51.7031 279.661 50.6955 280.217 49.8736C280.774 49.045 281.51 48.4186 282.425 47.9943C283.346 47.5701 284.364 47.358 285.477 47.358C286.697 47.358 287.764 47.5866 288.679 48.044C289.594 48.4948 290.303 49.1278 290.807 49.9432C291.317 50.7519 291.572 51.6965 291.572 52.777C291.572 53.5194 291.456 54.1889 291.224 54.7855C290.992 55.3755 290.661 55.9025 290.23 56.3665C289.806 56.8305 289.295 57.2415 288.699 57.5994C288.135 57.9508 287.678 58.3153 287.327 58.6932C286.982 59.071 286.73 59.5185 286.571 60.0355C286.412 60.5526 286.326 61.1922 286.312 61.9545V62.1435H283.469ZM284.97 68.1889C284.427 68.1889 283.959 67.9967 283.568 67.6122C283.177 67.2211 282.982 66.7505 282.982 66.2003C282.982 65.6567 283.177 65.1927 283.568 64.8082C283.959 64.4171 284.427 64.2216 284.97 64.2216C285.507 64.2216 285.971 64.4171 286.362 64.8082C286.76 65.1927 286.959 65.6567 286.959 66.2003C286.959 66.5649 286.866 66.8996 286.68 67.2045C286.501 67.5028 286.263 67.7415 285.964 67.9205C285.666 68.0994 285.335 68.1889 284.97 68.1889ZM317.013 47.6364V68H314.189L303.838 53.0653H303.65V68H300.577V47.6364H303.421L313.782 62.5909H313.971V47.6364H317.013ZM326.69 68.3082C325.258 68.3082 324.008 67.9801 322.941 67.3239C321.874 66.6676 321.045 65.7495 320.455 64.5696C319.865 63.3897 319.57 62.0109 319.57 60.4332C319.57 58.849 319.865 57.4635 320.455 56.277C321.045 55.0904 321.874 54.169 322.941 53.5128C324.008 52.8565 325.258 52.5284 326.69 52.5284C328.121 52.5284 329.371 52.8565 330.438 53.5128C331.505 54.169 332.334 55.0904 332.924 56.277C333.514 57.4635 333.809 58.849 333.809 60.4332C333.809 62.0109 333.514 63.3897 332.924 64.5696C332.334 65.7495 331.505 66.6676 330.438 67.3239C329.371 67.9801 328.121 68.3082 326.69 68.3082ZM326.7 65.8125C327.628 65.8125 328.397 65.5672 329.006 65.0767C329.616 64.5862 330.067 63.9332 330.359 63.1179C330.657 62.3026 330.806 61.4044 330.806 60.4233C330.806 59.4489 330.657 58.554 330.359 57.7386C330.067 56.9167 329.616 56.2571 329.006 55.7599C328.397 55.2628 327.628 55.0142 326.7 55.0142C325.765 55.0142 324.989 55.2628 324.373 55.7599C323.763 56.2571 323.309 56.9167 323.011 57.7386C322.719 58.554 322.573 59.4489 322.573 60.4233C322.573 61.4044 322.719 62.3026 323.011 63.1179C323.309 63.9332 323.763 64.5862 324.373 65.0767C324.989 65.5672 325.765 65.8125 326.7 65.8125ZM345.849 68L341.354 52.7273H344.427L347.42 63.9432H347.569L350.572 52.7273H353.644L356.627 63.8935H356.776L359.749 52.7273H362.822L358.337 68H355.305L352.202 56.973H351.974L348.871 68H345.849ZM370.612 68.3082C369.18 68.3082 367.93 67.9801 366.863 67.3239C365.796 66.6676 364.967 65.7495 364.377 64.5696C363.787 63.3897 363.492 62.0109 363.492 60.4332C363.492 58.849 363.787 57.4635 364.377 56.277C364.967 55.0904 365.796 54.169 366.863 53.5128C367.93 52.8565 369.18 52.5284 370.612 52.5284C372.043 52.5284 373.293 52.8565 374.36 53.5128C375.427 54.169 376.256 55.0904 376.846 56.277C377.436 57.4635 377.731 58.849 377.731 60.4332C377.731 62.0109 377.436 63.3897 376.846 64.5696C376.256 65.7495 375.427 66.6676 374.36 67.3239C373.293 67.9801 372.043 68.3082 370.612 68.3082ZM370.621 65.8125C371.549 65.8125 372.318 65.5672 372.928 65.0767C373.538 64.5862 373.989 63.9332 374.281 63.1179C374.579 62.3026 374.728 61.4044 374.728 60.4233C374.728 59.4489 374.579 58.554 374.281 57.7386C373.989 56.9167 373.538 56.2571 372.928 55.7599C372.318 55.2628 371.549 55.0142 370.621 55.0142C369.687 55.0142 368.911 55.2628 368.295 55.7599C367.685 56.2571 367.231 56.9167 366.933 57.7386C366.641 58.554 366.495 59.4489 366.495 60.4233C366.495 61.4044 366.641 62.3026 366.933 63.1179C367.231 63.9332 367.685 64.5862 368.295 65.0767C368.911 65.5672 369.687 65.8125 370.621 65.8125ZM380.049 68V52.7273H382.923V55.1534H383.082C383.36 54.3314 383.851 53.6851 384.554 53.2145C385.263 52.7372 386.065 52.4986 386.96 52.4986C387.145 52.4986 387.364 52.5052 387.616 52.5185C387.875 52.5317 388.077 52.5483 388.223 52.5682V55.4119C388.103 55.3788 387.891 55.3423 387.586 55.3026C387.281 55.2562 386.976 55.233 386.672 55.233C385.969 55.233 385.342 55.3821 384.792 55.6804C384.249 55.9721 383.818 56.3797 383.5 56.9034C383.181 57.4205 383.022 58.0104 383.022 58.6733V68H380.049ZM389.795 68V52.7273H392.669V55.1534H392.828C393.107 54.3314 393.597 53.6851 394.3 53.2145C395.009 52.7372 395.811 52.4986 396.706 52.4986C396.892 52.4986 397.11 52.5052 397.362 52.5185C397.621 52.5317 397.823 52.5483 397.969 52.5682V55.4119C397.849 55.3788 397.637 55.3423 397.332 55.3026C397.027 55.2562 396.723 55.233 396.418 55.233C395.715 55.233 395.089 55.3821 394.538 55.6804C393.995 55.9721 393.564 56.3797 393.246 56.9034C392.928 57.4205 392.768 58.0104 392.768 58.6733V68H389.795ZM399.542 68V52.7273H402.515V68H399.542ZM401.043 50.3707C400.526 50.3707 400.082 50.1984 399.711 49.8537C399.346 49.5024 399.164 49.0848 399.164 48.6009C399.164 48.1103 399.346 47.6927 399.711 47.348C400.082 46.9967 400.526 46.821 401.043 46.821C401.56 46.821 402.001 46.9967 402.365 47.348C402.737 47.6927 402.922 48.1103 402.922 48.6009C402.922 49.0848 402.737 49.5024 402.365 49.8537C402.001 50.1984 401.56 50.3707 401.043 50.3707ZM412.097 68.3082C410.592 68.3082 409.296 67.9867 408.209 67.3438C407.128 66.6941 406.293 65.7827 405.703 64.6094C405.12 63.4295 404.828 62.0473 404.828 60.4631C404.828 58.8987 405.12 57.5199 405.703 56.3267C406.293 55.1335 407.115 54.2022 408.169 53.5327C409.23 52.8632 410.469 52.5284 411.888 52.5284C412.75 52.5284 413.585 52.6709 414.393 52.956C415.202 53.241 415.928 53.6884 416.571 54.2983C417.214 54.9081 417.721 55.7003 418.092 56.6747C418.464 57.6425 418.649 58.8191 418.649 60.2045V61.2585H406.509V59.0312H415.736C415.736 58.2491 415.577 57.5563 415.259 56.9531C414.94 56.3433 414.493 55.8627 413.916 55.5114C413.346 55.16 412.677 54.9844 411.908 54.9844C411.072 54.9844 410.343 55.1899 409.72 55.6009C409.104 56.0052 408.626 56.5355 408.288 57.1918C407.957 57.8414 407.791 58.5473 407.791 59.3097V61.0497C407.791 62.0705 407.97 62.9389 408.328 63.6548C408.693 64.3707 409.2 64.9176 409.849 65.2955C410.499 65.6667 411.258 65.8523 412.126 65.8523C412.69 65.8523 413.204 65.7727 413.668 65.6136C414.132 65.4479 414.533 65.2027 414.871 64.8778C415.209 64.553 415.467 64.152 415.646 63.6747L418.46 64.1818C418.235 65.0104 417.83 65.7363 417.247 66.3594C416.67 66.9759 415.945 67.4564 415.07 67.8011C414.201 68.1392 413.21 68.3082 412.097 68.3082ZM432.392 56.456L429.698 56.9332C429.585 56.5885 429.406 56.2604 429.161 55.9489C428.922 55.6373 428.597 55.3821 428.186 55.1832C427.775 54.9844 427.262 54.8849 426.645 54.8849C425.803 54.8849 425.101 55.0739 424.537 55.4517C423.974 55.8229 423.692 56.3035 423.692 56.8935C423.692 57.4039 423.881 57.8149 424.259 58.1264C424.637 58.438 425.247 58.6932 426.088 58.892L428.515 59.4489C429.92 59.7737 430.967 60.2741 431.657 60.9503C432.346 61.6264 432.691 62.5047 432.691 63.5852C432.691 64.5 432.426 65.3153 431.895 66.0312C431.372 66.7405 430.639 67.2973 429.698 67.7017C428.763 68.1061 427.679 68.3082 426.446 68.3082C424.736 68.3082 423.341 67.9437 422.26 67.2145C421.18 66.4787 420.517 65.4347 420.272 64.0824L423.145 63.6449C423.324 64.3939 423.692 64.9607 424.249 65.3452C424.806 65.723 425.532 65.9119 426.426 65.9119C427.401 65.9119 428.18 65.7098 428.763 65.3054C429.346 64.8944 429.638 64.3939 429.638 63.804C429.638 63.3267 429.459 62.9257 429.101 62.6009C428.75 62.276 428.21 62.0308 427.48 61.8651L424.895 61.2983C423.47 60.9735 422.416 60.4564 421.733 59.7472C421.057 59.0379 420.719 58.1397 420.719 57.0526C420.719 56.151 420.971 55.3622 421.475 54.6861C421.979 54.0099 422.675 53.483 423.563 53.1051C424.451 52.7206 425.469 52.5284 426.615 52.5284C428.266 52.5284 429.565 52.8864 430.513 53.6023C431.461 54.3116 432.087 55.2628 432.392 56.456ZM438.708 47.6364L438.45 62.1435H435.695L435.437 47.6364H438.708ZM437.077 68.1889C436.527 68.1889 436.057 67.9967 435.665 67.6122C435.274 67.2211 435.082 66.7505 435.089 66.2003C435.082 65.6567 435.274 65.1927 435.665 64.8082C436.057 64.4171 436.527 64.2216 437.077 64.2216C437.614 64.2216 438.078 64.4171 438.469 64.8082C438.861 65.1927 439.059 65.6567 439.066 66.2003C439.059 66.5649 438.963 66.8996 438.778 67.2045C438.599 67.5028 438.36 67.7415 438.062 67.9205C437.763 68.0994 437.435 68.1889 437.077 68.1889ZM448.839 68V47.6364H456.097C457.675 47.6364 458.984 47.9081 460.025 48.4517C461.072 48.9953 461.854 49.7476 462.371 50.7088C462.888 51.6634 463.147 52.767 463.147 54.0199C463.147 55.2661 462.885 56.3632 462.362 57.3111C461.844 58.2524 461.062 58.9848 460.015 59.5085C458.974 60.0322 457.665 60.294 456.087 60.294H450.589V57.6491H455.809C456.803 57.6491 457.612 57.5066 458.235 57.2216C458.865 56.9366 459.326 56.5223 459.617 55.9787C459.909 55.4351 460.055 54.7822 460.055 54.0199C460.055 53.2509 459.906 52.5848 459.607 52.0213C459.316 51.4579 458.855 51.027 458.225 50.7287C457.602 50.4238 456.783 50.2713 455.769 50.2713H451.911V68H448.839ZM458.891 58.8125L463.923 68H460.423L455.491 58.8125H458.891ZM472.038 68.3082C470.533 68.3082 469.237 67.9867 468.15 67.3438C467.07 66.6941 466.234 65.7827 465.645 64.6094C465.061 63.4295 464.77 62.0473 464.77 60.4631C464.77 58.8987 465.061 57.5199 465.645 56.3267C466.234 55.1335 467.056 54.2022 468.11 53.5327C469.171 52.8632 470.411 52.5284 471.829 52.5284C472.691 52.5284 473.526 52.6709 474.335 52.956C475.144 53.241 475.869 53.6884 476.512 54.2983C477.155 54.9081 477.663 55.7003 478.034 56.6747C478.405 57.6425 478.591 58.8191 478.591 60.2045V61.2585H466.45V59.0312H475.677C475.677 58.2491 475.518 57.5563 475.2 56.9531C474.882 56.3433 474.434 55.8627 473.858 55.5114C473.288 55.16 472.618 54.9844 471.849 54.9844C471.014 54.9844 470.285 55.1899 469.662 55.6009C469.045 56.0052 468.568 56.5355 468.23 57.1918C467.898 57.8414 467.733 58.5473 467.733 59.3097V61.0497C467.733 62.0705 467.912 62.9389 468.27 63.6548C468.634 64.3707 469.141 64.9176 469.791 65.2955C470.44 65.6667 471.199 65.8523 472.068 65.8523C472.631 65.8523 473.145 65.7727 473.609 65.6136C474.073 65.4479 474.474 65.2027 474.812 64.8778C475.15 64.553 475.409 64.152 475.588 63.6747L478.402 64.1818C478.176 65.0104 477.772 65.7363 477.189 66.3594C476.612 66.9759 475.886 67.4564 475.011 67.8011C474.143 68.1392 473.152 68.3082 472.038 68.3082ZM485.334 68.3381C484.366 68.3381 483.491 68.1591 482.709 67.8011C481.927 67.4366 481.307 66.9096 480.849 66.2202C480.399 65.5308 480.173 64.6856 480.173 63.6847C480.173 62.8229 480.339 62.1136 480.67 61.5568C481.002 61 481.449 60.5592 482.013 60.2344C482.576 59.9096 483.206 59.6643 483.902 59.4986C484.598 59.3329 485.307 59.2069 486.03 59.1207C486.945 59.0147 487.687 58.9285 488.257 58.8622C488.827 58.7893 489.241 58.6733 489.5 58.5142C489.759 58.3551 489.888 58.0966 489.888 57.7386V57.669C489.888 56.8007 489.643 56.1278 489.152 55.6506C488.668 55.1733 487.946 54.9347 486.984 54.9347C485.983 54.9347 485.195 55.1567 484.618 55.6009C484.048 56.0384 483.653 56.5256 483.435 57.0625L480.641 56.4261C480.972 55.4981 481.456 54.7491 482.092 54.179C482.735 53.6023 483.474 53.1847 484.31 52.9261C485.145 52.661 486.023 52.5284 486.945 52.5284C487.554 52.5284 488.201 52.6013 488.884 52.7472C489.573 52.8864 490.216 53.1449 490.812 53.5227C491.416 53.9006 491.91 54.4408 492.294 55.1435C492.679 55.8395 492.871 56.7443 492.871 57.858V68H489.967V65.9119H489.848C489.656 66.2964 489.367 66.6742 488.983 67.0455C488.598 67.4167 488.105 67.7249 487.501 67.9702C486.898 68.2154 486.176 68.3381 485.334 68.3381ZM485.98 65.9517C486.802 65.9517 487.505 65.7893 488.088 65.4645C488.678 65.1397 489.125 64.7154 489.43 64.1918C489.742 63.6615 489.898 63.0947 489.898 62.4915V60.5227C489.792 60.6288 489.586 60.7282 489.281 60.821C488.983 60.9072 488.642 60.9834 488.257 61.0497C487.873 61.1094 487.498 61.1657 487.134 61.2188C486.769 61.2652 486.464 61.3049 486.219 61.3381C485.642 61.411 485.115 61.5336 484.638 61.706C484.167 61.8783 483.789 62.1269 483.504 62.4517C483.226 62.7699 483.087 63.1941 483.087 63.7244C483.087 64.4602 483.358 65.017 483.902 65.3949C484.446 65.7661 485.138 65.9517 485.98 65.9517ZM502.264 68.3082C500.786 68.3082 499.513 67.9735 498.446 67.304C497.385 66.6278 496.57 65.6965 496 64.5099C495.43 63.3234 495.145 61.9645 495.145 60.4332C495.145 58.8821 495.436 57.5133 496.02 56.3267C496.603 55.1335 497.425 54.2022 498.485 53.5327C499.546 52.8632 500.796 52.5284 502.234 52.5284C503.394 52.5284 504.428 52.7438 505.336 53.1747C506.244 53.599 506.977 54.1955 507.534 54.9645C508.097 55.7334 508.432 56.6316 508.538 57.6591H505.645C505.485 56.9432 505.121 56.3267 504.551 55.8097C503.987 55.2926 503.232 55.0341 502.284 55.0341C501.455 55.0341 500.729 55.2528 500.106 55.6903C499.49 56.1212 499.009 56.7377 498.664 57.5398C498.32 58.3352 498.147 59.2765 498.147 60.3636C498.147 61.4773 498.316 62.4384 498.654 63.2472C498.993 64.0559 499.47 64.6823 500.086 65.1264C500.709 65.5705 501.442 65.7926 502.284 65.7926C502.847 65.7926 503.358 65.6899 503.815 65.4844C504.279 65.2723 504.667 64.9706 504.978 64.5795C505.297 64.1884 505.519 63.7178 505.645 63.1676H508.538C508.432 64.1553 508.11 65.0369 507.574 65.8125C507.037 66.5881 506.317 67.1979 505.416 67.642C504.521 68.0862 503.47 68.3082 502.264 68.3082ZM513.69 58.9318V68H510.717V47.6364H513.651V55.2131H513.839C514.197 54.3911 514.744 53.7382 515.48 53.2543C516.216 52.7704 517.177 52.5284 518.364 52.5284C519.411 52.5284 520.326 52.7438 521.108 53.1747C521.897 53.6056 522.507 54.2486 522.938 55.1037C523.375 55.9522 523.594 57.0128 523.594 58.2855V68H520.621V58.6435C520.621 57.5232 520.332 56.6548 519.756 56.0384C519.179 55.4152 518.377 55.1037 517.349 55.1037C516.647 55.1037 516.017 55.2528 515.46 55.5511C514.91 55.8494 514.476 56.2869 514.158 56.8636C513.846 57.4337 513.69 58.1231 513.69 58.9318ZM539.404 68.3082C537.973 68.3082 536.723 67.9801 535.656 67.3239C534.589 66.6676 533.76 65.7495 533.17 64.5696C532.58 63.3897 532.285 62.0109 532.285 60.4332C532.285 58.849 532.58 57.4635 533.17 56.277C533.76 55.0904 534.589 54.169 535.656 53.5128C536.723 52.8565 537.973 52.5284 539.404 52.5284C540.836 52.5284 542.086 52.8565 543.153 53.5128C544.22 54.169 545.049 55.0904 545.639 56.277C546.229 57.4635 546.524 58.849 546.524 60.4332C546.524 62.0109 546.229 63.3897 545.639 64.5696C545.049 65.7495 544.22 66.6676 543.153 67.3239C542.086 67.9801 540.836 68.3082 539.404 68.3082ZM539.414 65.8125C540.342 65.8125 541.111 65.5672 541.721 65.0767C542.331 64.5862 542.782 63.9332 543.074 63.1179C543.372 62.3026 543.521 61.4044 543.521 60.4233C543.521 59.4489 543.372 58.554 543.074 57.7386C542.782 56.9167 542.331 56.2571 541.721 55.7599C541.111 55.2628 540.342 55.0142 539.414 55.0142C538.48 55.0142 537.704 55.2628 537.088 55.7599C536.478 56.2571 536.024 56.9167 535.725 57.7386C535.434 58.554 535.288 59.4489 535.288 60.4233C535.288 61.4044 535.434 62.3026 535.725 63.1179C536.024 63.9332 536.478 64.5862 537.088 65.0767C537.704 65.5672 538.48 65.8125 539.414 65.8125ZM558.517 61.6662V52.7273H561.5V68H558.577V65.3551H558.418C558.066 66.1705 557.503 66.8499 556.727 67.3935C555.958 67.9304 555 68.1989 553.854 68.1989C552.873 68.1989 552.004 67.9834 551.249 67.5526C550.5 67.1151 549.91 66.4688 549.479 65.6136C549.054 64.7585 548.842 63.7012 548.842 62.4418V52.7273H551.815V62.0838C551.815 63.1245 552.104 63.9531 552.68 64.5696C553.257 65.1861 554.006 65.4943 554.928 65.4943C555.484 65.4943 556.038 65.3551 556.588 65.0767C557.145 64.7983 557.606 64.3774 557.97 63.8139C558.341 63.2505 558.524 62.5346 558.517 61.6662ZM571.624 52.7273V55.1136H563.282V52.7273H571.624ZM565.519 49.0682H568.492V63.5156C568.492 64.0923 568.578 64.5265 568.75 64.8182C568.923 65.1032 569.145 65.2988 569.417 65.4048C569.695 65.5043 569.997 65.554 570.321 65.554C570.56 65.554 570.769 65.5374 570.948 65.5043C571.127 65.4711 571.266 65.4446 571.365 65.4247L571.902 67.8807C571.73 67.947 571.485 68.0133 571.167 68.0795C570.848 68.1525 570.451 68.1922 569.973 68.1989C569.191 68.2121 568.462 68.0729 567.786 67.7812C567.11 67.4896 566.563 67.0388 566.145 66.429C565.728 65.8191 565.519 65.0535 565.519 64.1321V49.0682ZM587.452 52.7273V55.1136H579.11V52.7273H587.452ZM581.347 49.0682H584.32V63.5156C584.32 64.0923 584.406 64.5265 584.578 64.8182C584.751 65.1032 584.973 65.2988 585.245 65.4048C585.523 65.5043 585.825 65.554 586.15 65.554C586.388 65.554 586.597 65.5374 586.776 65.5043C586.955 65.4711 587.094 65.4446 587.194 65.4247L587.73 67.8807C587.558 67.947 587.313 68.0133 586.995 68.0795C586.676 68.1525 586.279 68.1922 585.801 68.1989C585.019 68.2121 584.29 68.0729 583.614 67.7812C582.938 67.4896 582.391 67.0388 581.973 66.429C581.556 65.8191 581.347 65.0535 581.347 64.1321V49.0682ZM596.01 68.3082C594.578 68.3082 593.329 67.9801 592.261 67.3239C591.194 66.6676 590.366 65.7495 589.776 64.5696C589.186 63.3897 588.891 62.0109 588.891 60.4332C588.891 58.849 589.186 57.4635 589.776 56.277C590.366 55.0904 591.194 54.169 592.261 53.5128C593.329 52.8565 594.578 52.5284 596.01 52.5284C597.442 52.5284 598.691 52.8565 599.759 53.5128C600.826 54.169 601.654 55.0904 602.244 56.277C602.834 57.4635 603.129 58.849 603.129 60.4332C603.129 62.0109 602.834 63.3897 602.244 64.5696C601.654 65.7495 600.826 66.6676 599.759 67.3239C598.691 67.9801 597.442 68.3082 596.01 68.3082ZM596.02 65.8125C596.948 65.8125 597.717 65.5672 598.327 65.0767C598.937 64.5862 599.387 63.9332 599.679 63.1179C599.977 62.3026 600.126 61.4044 600.126 60.4233C600.126 59.4489 599.977 58.554 599.679 57.7386C599.387 56.9167 598.937 56.2571 598.327 55.7599C597.717 55.2628 596.948 55.0142 596.02 55.0142C595.085 55.0142 594.31 55.2628 593.693 55.7599C593.083 56.2571 592.629 56.9167 592.331 57.7386C592.039 58.554 591.893 59.4489 591.893 60.4233C591.893 61.4044 592.039 62.3026 592.331 63.1179C592.629 63.9332 593.083 64.5862 593.693 65.0767C594.31 65.5672 595.085 65.8125 596.02 65.8125ZM621.533 61.6662V52.7273H624.516V68H621.592V65.3551H621.433C621.082 66.1705 620.518 66.8499 619.743 67.3935C618.974 67.9304 618.016 68.1989 616.869 68.1989C615.888 68.1989 615.02 67.9834 614.264 67.5526C613.515 67.1151 612.925 66.4688 612.494 65.6136C612.07 64.7585 611.858 63.7012 611.858 62.4418V52.7273H614.831V62.0838C614.831 63.1245 615.119 63.9531 615.696 64.5696C616.273 65.1861 617.022 65.4943 617.943 65.4943C618.5 65.4943 619.054 65.3551 619.604 65.0767C620.161 64.7983 620.621 64.3774 620.986 63.8139C621.357 63.2505 621.539 62.5346 621.533 61.6662ZM638.955 56.456L636.26 56.9332C636.148 56.5885 635.969 56.2604 635.723 55.9489C635.485 55.6373 635.16 55.3821 634.749 55.1832C634.338 54.9844 633.824 54.8849 633.208 54.8849C632.366 54.8849 631.663 55.0739 631.1 55.4517C630.536 55.8229 630.255 56.3035 630.255 56.8935C630.255 57.4039 630.444 57.8149 630.821 58.1264C631.199 58.438 631.809 58.6932 632.651 58.892L635.077 59.4489C636.482 59.7737 637.53 60.2741 638.219 60.9503C638.908 61.6264 639.253 62.5047 639.253 63.5852C639.253 64.5 638.988 65.3153 638.458 66.0312C637.934 66.7405 637.202 67.2973 636.26 67.7017C635.326 68.1061 634.242 68.3082 633.009 68.3082C631.299 68.3082 629.903 67.9437 628.823 67.2145C627.742 66.4787 627.079 65.4347 626.834 64.0824L629.708 63.6449C629.887 64.3939 630.255 64.9607 630.811 65.3452C631.368 65.723 632.094 65.9119 632.989 65.9119C633.963 65.9119 634.742 65.7098 635.326 65.3054C635.909 64.8944 636.201 64.3939 636.201 63.804C636.201 63.3267 636.022 62.9257 635.664 62.6009C635.312 62.276 634.772 62.0308 634.043 61.8651L631.458 61.2983C630.033 60.9735 628.979 60.4564 628.296 59.7472C627.62 59.0379 627.282 58.1397 627.282 57.0526C627.282 56.151 627.533 55.3622 628.037 54.6861C628.541 54.0099 629.237 53.483 630.125 53.1051C631.014 52.7206 632.031 52.5284 633.178 52.5284C634.828 52.5284 636.128 52.8864 637.076 53.6023C638.024 54.3116 638.65 55.2628 638.955 56.456ZM652.377 68.3381C651.409 68.3381 650.534 68.1591 649.752 67.8011C648.97 67.4366 648.35 66.9096 647.892 66.2202C647.442 65.5308 647.216 64.6856 647.216 63.6847C647.216 62.8229 647.382 62.1136 647.713 61.5568C648.045 61 648.492 60.5592 649.056 60.2344C649.619 59.9096 650.249 59.6643 650.945 59.4986C651.641 59.3329 652.35 59.2069 653.073 59.1207C653.988 59.0147 654.73 58.9285 655.3 58.8622C655.87 58.7893 656.284 58.6733 656.543 58.5142C656.801 58.3551 656.931 58.0966 656.931 57.7386V57.669C656.931 56.8007 656.685 56.1278 656.195 55.6506C655.711 55.1733 654.989 54.9347 654.027 54.9347C653.026 54.9347 652.238 55.1567 651.661 55.6009C651.091 56.0384 650.696 56.5256 650.478 57.0625L647.684 56.4261C648.015 55.4981 648.499 54.7491 649.135 54.179C649.778 53.6023 650.517 53.1847 651.353 52.9261C652.188 52.661 653.066 52.5284 653.988 52.5284C654.597 52.5284 655.244 52.6013 655.926 52.7472C656.616 52.8864 657.259 53.1449 657.855 53.5227C658.459 53.9006 658.953 54.4408 659.337 55.1435C659.721 55.8395 659.914 56.7443 659.914 57.858V68H657.01V65.9119H656.891C656.699 66.2964 656.41 66.6742 656.026 67.0455C655.641 67.4167 655.148 67.7249 654.544 67.9702C653.941 68.2154 653.219 68.3381 652.377 68.3381ZM653.023 65.9517C653.845 65.9517 654.548 65.7893 655.131 65.4645C655.721 65.1397 656.168 64.7154 656.473 64.1918C656.785 63.6615 656.941 63.0947 656.941 62.4915V60.5227C656.835 60.6288 656.629 60.7282 656.324 60.821C656.026 60.9072 655.685 60.9834 655.3 61.0497C654.916 61.1094 654.541 61.1657 654.176 61.2188C653.812 61.2652 653.507 61.3049 653.262 61.3381C652.685 61.411 652.158 61.5336 651.681 61.706C651.21 61.8783 650.832 62.1269 650.547 62.4517C650.269 62.7699 650.13 63.1941 650.13 63.7244C650.13 64.4602 650.401 65.017 650.945 65.3949C651.489 65.7661 652.181 65.9517 653.023 65.9517ZM665.847 58.9318V68H662.874V52.7273H665.727V55.2131H665.916C666.268 54.4044 666.818 53.7547 667.567 53.2642C668.322 52.7737 669.274 52.5284 670.42 52.5284C671.461 52.5284 672.373 52.7472 673.155 53.1847C673.937 53.6155 674.544 54.2585 674.974 55.1136C675.405 55.9687 675.621 57.026 675.621 58.2855V68H672.648V58.6435C672.648 57.5365 672.359 56.6714 671.783 56.0483C671.206 55.4186 670.414 55.1037 669.406 55.1037C668.717 55.1037 668.104 55.2528 667.567 55.5511C667.036 55.8494 666.616 56.2869 666.304 56.8636C665.999 57.4337 665.847 58.1231 665.847 58.9318ZM684.325 68.2983C683.092 68.2983 681.992 67.9834 681.024 67.3537C680.063 66.7173 679.307 65.8125 678.757 64.6392C678.214 63.4593 677.942 62.044 677.942 60.3935C677.942 58.7429 678.217 57.331 678.767 56.1577C679.324 54.9844 680.086 54.0862 681.054 53.4631C682.022 52.84 683.119 52.5284 684.345 52.5284C685.293 52.5284 686.055 52.6875 686.632 53.0057C687.215 53.3172 687.666 53.6818 687.984 54.0994C688.309 54.517 688.561 54.8849 688.74 55.2031H688.919V47.6364H691.892V68H688.989V65.6236H688.74C688.561 65.9484 688.303 66.3196 687.964 66.7372C687.633 67.1548 687.176 67.5194 686.592 67.831C686.009 68.1425 685.253 68.2983 684.325 68.2983ZM684.982 65.7628C685.837 65.7628 686.559 65.5374 687.149 65.0866C687.746 64.6293 688.196 63.9962 688.501 63.1875C688.813 62.3788 688.969 61.4375 688.969 60.3636C688.969 59.303 688.816 58.375 688.511 57.5795C688.206 56.7841 687.759 56.1643 687.169 55.7202C686.579 55.276 685.85 55.054 684.982 55.054C684.087 55.054 683.341 55.286 682.744 55.75C682.148 56.214 681.697 56.8471 681.392 57.6491C681.094 58.4512 680.945 59.3561 680.945 60.3636C680.945 61.3845 681.097 62.3026 681.402 63.1179C681.707 63.9332 682.158 64.5795 682.754 65.0568C683.357 65.5275 684.1 65.7628 684.982 65.7628ZM704.857 68L700.362 52.7273H703.435L706.428 63.9432H706.577L709.58 52.7273H712.652L715.635 63.8935H715.784L718.757 52.7273H721.83L717.345 68H714.312L711.21 56.973H710.982L707.879 68H704.857ZM729.768 68.3082C728.264 68.3082 726.968 67.9867 725.881 67.3438C724.8 66.6941 723.965 65.7827 723.375 64.6094C722.792 63.4295 722.5 62.0473 722.5 60.4631C722.5 58.8987 722.792 57.5199 723.375 56.3267C723.965 55.1335 724.787 54.2022 725.841 53.5327C726.902 52.8632 728.141 52.5284 729.56 52.5284C730.421 52.5284 731.257 52.6709 732.065 52.956C732.874 53.241 733.6 53.6884 734.243 54.2983C734.886 54.9081 735.393 55.7003 735.764 56.6747C736.135 57.6425 736.321 58.8191 736.321 60.2045V61.2585H724.18V59.0312H733.408C733.408 58.2491 733.249 57.5563 732.93 56.9531C732.612 56.3433 732.165 55.8627 731.588 55.5114C731.018 55.16 730.348 54.9844 729.58 54.9844C728.744 54.9844 728.015 55.1899 727.392 55.6009C726.776 56.0052 726.298 56.5355 725.96 57.1918C725.629 57.8414 725.463 58.5473 725.463 59.3097V61.0497C725.463 62.0705 725.642 62.9389 726 63.6548C726.365 64.3707 726.872 64.9176 727.521 65.2955C728.171 65.6667 728.93 65.8523 729.798 65.8523C730.362 65.8523 730.875 65.7727 731.339 65.6136C731.804 65.4479 732.205 65.2027 732.543 64.8778C732.881 64.553 733.139 64.152 733.318 63.6747L736.132 64.1818C735.907 65.0104 735.502 65.7363 734.919 66.3594C734.342 66.9759 733.616 67.4564 732.741 67.8011C731.873 68.1392 730.882 68.3082 729.768 68.3082ZM741.175 47.6364V49.5455C741.175 50.1089 741.069 50.7022 740.857 51.3253C740.651 51.9418 740.36 52.535 739.982 53.1051C739.604 53.6752 739.16 54.1657 738.65 54.5767L737.178 53.5227C737.569 52.9527 737.907 52.3461 738.192 51.7031C738.484 51.0601 738.63 50.3509 738.63 49.5753V47.6364H741.175ZM746.171 47.6364V68H743.198V47.6364H746.171ZM752.143 47.6364V68H749.17V47.6364H752.143ZM761.553 68V52.7273H764.407V55.2131H764.596C764.914 54.3712 765.434 53.715 766.157 53.2443C766.879 52.767 767.745 52.5284 768.752 52.5284C769.773 52.5284 770.628 52.767 771.317 53.2443C772.013 53.7216 772.527 54.3778 772.859 55.2131H773.018C773.382 54.3977 773.962 53.7481 774.758 53.2642C775.553 52.7737 776.501 52.5284 777.602 52.5284C778.987 52.5284 780.117 52.9626 780.992 53.831C781.874 54.6993 782.315 56.0085 782.315 57.7585V68H779.342V58.0369C779.342 57.0028 779.06 56.2538 778.496 55.7898C777.933 55.3258 777.26 55.0938 776.478 55.0938C775.51 55.0938 774.758 55.392 774.221 55.9886C773.684 56.5786 773.415 57.3376 773.415 58.2656V68H770.452V57.848C770.452 57.0194 770.194 56.3532 769.677 55.8494C769.16 55.3456 768.487 55.0938 767.658 55.0938C767.095 55.0938 766.575 55.2429 766.097 55.5412C765.627 55.8329 765.246 56.2405 764.954 56.7642C764.669 57.2879 764.526 57.8944 764.526 58.5838V68H761.553ZM789.744 68.3381C788.776 68.3381 787.901 68.1591 787.119 67.8011C786.337 67.4366 785.717 66.9096 785.26 66.2202C784.809 65.5308 784.583 64.6856 784.583 63.6847C784.583 62.8229 784.749 62.1136 785.081 61.5568C785.412 61 785.859 60.5592 786.423 60.2344C786.986 59.9096 787.616 59.6643 788.312 59.4986C789.008 59.3329 789.717 59.2069 790.44 59.1207C791.355 59.0147 792.097 58.9285 792.667 58.8622C793.237 58.7893 793.652 58.6733 793.91 58.5142C794.169 58.3551 794.298 58.0966 794.298 57.7386V57.669C794.298 56.8007 794.053 56.1278 793.562 55.6506C793.078 55.1733 792.356 54.9347 791.395 54.9347C790.394 54.9347 789.605 55.1567 789.028 55.6009C788.458 56.0384 788.064 56.5256 787.845 57.0625L785.051 56.4261C785.382 55.4981 785.866 54.7491 786.502 54.179C787.145 53.6023 787.885 53.1847 788.72 52.9261C789.555 52.661 790.433 52.5284 791.355 52.5284C791.965 52.5284 792.611 52.6013 793.294 52.7472C793.983 52.8864 794.626 53.1449 795.223 53.5227C795.826 53.9006 796.32 54.4408 796.704 55.1435C797.089 55.8395 797.281 56.7443 797.281 57.858V68H794.377V65.9119H794.258C794.066 66.2964 793.778 66.6742 793.393 67.0455C793.009 67.4167 792.515 67.7249 791.912 67.9702C791.308 68.2154 790.586 68.3381 789.744 68.3381ZM790.39 65.9517C791.212 65.9517 791.915 65.7893 792.498 65.4645C793.088 65.1397 793.536 64.7154 793.841 64.1918C794.152 63.6615 794.308 63.0947 794.308 62.4915V60.5227C794.202 60.6288 793.996 60.7282 793.691 60.821C793.393 60.9072 793.052 60.9834 792.667 61.0497C792.283 61.1094 791.908 61.1657 791.544 61.2188C791.179 61.2652 790.874 61.3049 790.629 61.3381C790.052 61.411 789.525 61.5336 789.048 61.706C788.577 61.8783 788.199 62.1269 787.914 62.4517C787.636 62.7699 787.497 63.1941 787.497 63.7244C787.497 64.4602 787.769 65.017 788.312 65.3949C788.856 65.7661 789.548 65.9517 790.39 65.9517ZM802.975 62.8196L802.955 59.1903H803.472L809.558 52.7273H813.117L806.177 60.0852H805.71L802.975 62.8196ZM800.241 68V47.6364H803.214V68H800.241ZM809.886 68L804.417 60.7415L806.465 58.6634L813.535 68H809.886ZM820.78 68.3082C819.275 68.3082 817.98 67.9867 816.892 67.3438C815.812 66.6941 814.977 65.7827 814.387 64.6094C813.803 63.4295 813.512 62.0473 813.512 60.4631C813.512 58.8987 813.803 57.5199 814.387 56.3267C814.977 55.1335 815.799 54.2022 816.853 53.5327C817.913 52.8632 819.153 52.5284 820.571 52.5284C821.433 52.5284 822.268 52.6709 823.077 52.956C823.886 53.241 824.612 53.6884 825.255 54.2983C825.898 54.9081 826.405 55.7003 826.776 56.6747C827.147 57.6425 827.333 58.8191 827.333 60.2045V61.2585H815.192V59.0312H824.419C824.419 58.2491 824.26 57.5563 823.942 56.9531C823.624 56.3433 823.176 55.8627 822.6 55.5114C822.03 55.16 821.36 54.9844 820.591 54.9844C819.756 54.9844 819.027 55.1899 818.404 55.6009C817.787 56.0052 817.31 56.5355 816.972 57.1918C816.641 57.8414 816.475 58.5473 816.475 59.3097V61.0497C816.475 62.0705 816.654 62.9389 817.012 63.6548C817.376 64.3707 817.883 64.9176 818.533 65.2955C819.183 65.6667 819.942 65.8523 820.81 65.8523C821.373 65.8523 821.887 65.7727 822.351 65.6136C822.815 65.4479 823.216 65.2027 823.554 64.8778C823.892 64.553 824.151 64.152 824.33 63.6747L827.144 64.1818C826.918 65.0104 826.514 65.7363 825.931 66.3594C825.354 66.9759 824.628 67.4564 823.753 67.8011C822.885 68.1392 821.894 68.3082 820.78 68.3082ZM840.486 68.3381C839.518 68.3381 838.643 68.1591 837.861 67.8011C837.079 67.4366 836.459 66.9096 836.002 66.2202C835.551 65.5308 835.326 64.6856 835.326 63.6847C835.326 62.8229 835.491 62.1136 835.823 61.5568C836.154 61 836.602 60.5592 837.165 60.2344C837.729 59.9096 838.358 59.6643 839.054 59.4986C839.75 59.3329 840.46 59.2069 841.182 59.1207C842.097 59.0147 842.839 58.9285 843.409 58.8622C843.98 58.7893 844.394 58.6733 844.652 58.5142C844.911 58.3551 845.04 58.0966 845.04 57.7386V57.669C845.04 56.8007 844.795 56.1278 844.304 55.6506C843.82 55.1733 843.098 54.9347 842.137 54.9347C841.136 54.9347 840.347 55.1567 839.77 55.6009C839.2 56.0384 838.806 56.5256 838.587 57.0625L835.793 56.4261C836.124 55.4981 836.608 54.7491 837.245 54.179C837.888 53.6023 838.627 53.1847 839.462 52.9261C840.297 52.661 841.176 52.5284 842.097 52.5284C842.707 52.5284 843.353 52.6013 844.036 52.7472C844.725 52.8864 845.368 53.1449 845.965 53.5227C846.568 53.9006 847.062 54.4408 847.446 55.1435C847.831 55.8395 848.023 56.7443 848.023 57.858V68H845.12V65.9119H845C844.808 66.2964 844.52 66.6742 844.135 67.0455C843.751 67.4167 843.257 67.7249 842.654 67.9702C842.051 68.2154 841.328 68.3381 840.486 68.3381ZM841.132 65.9517C841.954 65.9517 842.657 65.7893 843.24 65.4645C843.83 65.1397 844.278 64.7154 844.583 64.1918C844.894 63.6615 845.05 63.0947 845.05 62.4915V60.5227C844.944 60.6288 844.739 60.7282 844.434 60.821C844.135 60.9072 843.794 60.9834 843.409 61.0497C843.025 61.1094 842.65 61.1657 842.286 61.2188C841.921 61.2652 841.616 61.3049 841.371 61.3381C840.794 61.411 840.267 61.5336 839.79 61.706C839.319 61.8783 838.942 62.1269 838.657 62.4517C838.378 62.7699 838.239 63.1941 838.239 63.7244C838.239 64.4602 838.511 65.017 839.054 65.3949C839.598 65.7661 840.291 65.9517 841.132 65.9517ZM863.826 68.3082C862.348 68.3082 861.075 67.9735 860.008 67.304C858.948 66.6278 858.132 65.6965 857.562 64.5099C856.992 63.3234 856.707 61.9645 856.707 60.4332C856.707 58.8821 856.999 57.5133 857.582 56.3267C858.165 55.1335 858.987 54.2022 860.048 53.5327C861.109 52.8632 862.358 52.5284 863.797 52.5284C864.957 52.5284 865.991 52.7438 866.899 53.1747C867.807 53.599 868.539 54.1955 869.096 54.9645C869.66 55.7334 869.994 56.6316 870.1 57.6591H867.207C867.048 56.9432 866.683 56.3267 866.113 55.8097C865.55 55.2926 864.794 55.0341 863.846 55.0341C863.018 55.0341 862.292 55.2528 861.669 55.6903C861.052 56.1212 860.572 56.7377 860.227 57.5398C859.882 58.3352 859.71 59.2765 859.71 60.3636C859.71 61.4773 859.879 62.4384 860.217 63.2472C860.555 64.0559 861.032 64.6823 861.649 65.1264C862.272 65.5705 863.004 65.7926 863.846 65.7926C864.41 65.7926 864.92 65.6899 865.377 65.4844C865.842 65.2723 866.229 64.9706 866.541 64.5795C866.859 64.1884 867.081 63.7178 867.207 63.1676H870.1C869.994 64.1553 869.673 65.0369 869.136 65.8125C868.599 66.5881 867.88 67.1979 866.978 67.642C866.083 68.0862 865.033 68.3082 863.826 68.3082ZM881.955 61.6662V52.7273H884.938V68H882.014V65.3551H881.855C881.504 66.1705 880.94 66.8499 880.165 67.3935C879.396 67.9304 878.438 68.1989 877.291 68.1989C876.31 68.1989 875.442 67.9834 874.686 67.5526C873.937 67.1151 873.347 66.4688 872.916 65.6136C872.492 64.7585 872.28 63.7012 872.28 62.4418V52.7273H875.253V62.0838C875.253 63.1245 875.541 63.9531 876.118 64.5696C876.695 65.1861 877.444 65.4943 878.365 65.4943C878.922 65.4943 879.475 65.3551 880.026 65.0767C880.582 64.7983 881.043 64.3774 881.408 63.8139C881.779 63.2505 881.961 62.5346 881.955 61.6662ZM899.377 56.456L896.682 56.9332C896.569 56.5885 896.391 56.2604 896.145 55.9489C895.907 55.6373 895.582 55.3821 895.171 55.1832C894.76 54.9844 894.246 54.8849 893.63 54.8849C892.788 54.8849 892.085 55.0739 891.522 55.4517C890.958 55.8229 890.676 56.3035 890.676 56.8935C890.676 57.4039 890.865 57.8149 891.243 58.1264C891.621 58.438 892.231 58.6932 893.073 58.892L895.499 59.4489C896.904 59.7737 897.952 60.2741 898.641 60.9503C899.33 61.6264 899.675 62.5047 899.675 63.5852C899.675 64.5 899.41 65.3153 898.88 66.0312C898.356 66.7405 897.623 67.2973 896.682 67.7017C895.748 68.1061 894.664 68.3082 893.431 68.3082C891.721 68.3082 890.325 67.9437 889.245 67.2145C888.164 66.4787 887.501 65.4347 887.256 64.0824L890.13 63.6449C890.309 64.3939 890.676 64.9607 891.233 65.3452C891.79 65.723 892.516 65.9119 893.411 65.9119C894.385 65.9119 895.164 65.7098 895.748 65.3054C896.331 64.8944 896.623 64.3939 896.623 63.804C896.623 63.3267 896.444 62.9257 896.086 62.6009C895.734 62.276 895.194 62.0308 894.465 61.8651L891.88 61.2983C890.454 60.9735 889.4 60.4564 888.718 59.7472C888.042 59.0379 887.703 58.1397 887.703 57.0526C887.703 56.151 887.955 55.3622 888.459 54.6861C888.963 54.0099 889.659 53.483 890.547 53.1051C891.435 52.7206 892.453 52.5284 893.6 52.5284C895.25 52.5284 896.55 52.8864 897.498 53.6023C898.445 54.3116 899.072 55.2628 899.377 56.456ZM909.073 52.7273V55.1136H900.731V52.7273H909.073ZM902.968 49.0682H905.941V63.5156C905.941 64.0923 906.027 64.5265 906.2 64.8182C906.372 65.1032 906.594 65.2988 906.866 65.4048C907.144 65.5043 907.446 65.554 907.771 65.554C908.009 65.554 908.218 65.5374 908.397 65.5043C908.576 65.4711 908.715 65.4446 908.815 65.4247L909.352 67.8807C909.179 67.947 908.934 68.0133 908.616 68.0795C908.298 68.1525 907.9 68.1922 907.423 68.1989C906.64 68.2121 905.911 68.0729 905.235 67.7812C904.559 67.4896 904.012 67.0388 903.594 66.429C903.177 65.8191 902.968 65.0535 902.968 64.1321V49.0682ZM917.631 68.3082C916.199 68.3082 914.95 67.9801 913.882 67.3239C912.815 66.6676 911.987 65.7495 911.397 64.5696C910.807 63.3897 910.512 62.0109 910.512 60.4332C910.512 58.849 910.807 57.4635 911.397 56.277C911.987 55.0904 912.815 54.169 913.882 53.5128C914.95 52.8565 916.199 52.5284 917.631 52.5284C919.063 52.5284 920.312 52.8565 921.38 53.5128C922.447 54.169 923.275 55.0904 923.865 56.277C924.455 57.4635 924.75 58.849 924.75 60.4332C924.75 62.0109 924.455 63.3897 923.865 64.5696C923.275 65.7495 922.447 66.6676 921.38 67.3239C920.312 67.9801 919.063 68.3082 917.631 68.3082ZM917.641 65.8125C918.569 65.8125 919.338 65.5672 919.948 65.0767C920.558 64.5862 921.008 63.9332 921.3 63.1179C921.598 62.3026 921.748 61.4044 921.748 60.4233C921.748 59.4489 921.598 58.554 921.3 57.7386C921.008 56.9167 920.558 56.2571 919.948 55.7599C919.338 55.2628 918.569 55.0142 917.641 55.0142C916.706 55.0142 915.931 55.2628 915.314 55.7599C914.704 56.2571 914.25 56.9167 913.952 57.7386C913.66 58.554 913.515 59.4489 913.515 60.4233C913.515 61.4044 913.66 62.3026 913.952 63.1179C914.25 63.9332 914.704 64.5862 915.314 65.0767C915.931 65.5672 916.706 65.8125 917.641 65.8125ZM927.069 68V52.7273H929.923V55.2131H930.112C930.43 54.3712 930.95 53.715 931.673 53.2443C932.395 52.767 933.26 52.5284 934.268 52.5284C935.289 52.5284 936.144 52.767 936.833 53.2443C937.529 53.7216 938.043 54.3778 938.374 55.2131H938.533C938.898 54.3977 939.478 53.7481 940.273 53.2642C941.069 52.7737 942.017 52.5284 943.117 52.5284C944.503 52.5284 945.633 52.9626 946.508 53.831C947.389 54.6993 947.83 56.0085 947.83 57.7585V68H944.857V58.0369C944.857 57.0028 944.576 56.2538 944.012 55.7898C943.449 55.3258 942.776 55.0938 941.994 55.0938C941.026 55.0938 940.273 55.392 939.737 55.9886C939.2 56.5786 938.931 57.3376 938.931 58.2656V68H935.968V57.848C935.968 57.0194 935.71 56.3532 935.192 55.8494C934.675 55.3456 934.003 55.0938 933.174 55.0938C932.611 55.0938 932.09 55.2429 931.613 55.5412C931.142 55.8329 930.761 56.2405 930.469 56.7642C930.184 57.2879 930.042 57.8944 930.042 58.5838V68H927.069ZM963.658 68.3082C962.227 68.3082 960.977 67.9801 959.91 67.3239C958.843 66.6676 958.014 65.7495 957.424 64.5696C956.834 63.3897 956.539 62.0109 956.539 60.4332C956.539 58.849 956.834 57.4635 957.424 56.277C958.014 55.0904 958.843 54.169 959.91 53.5128C960.977 52.8565 962.227 52.5284 963.658 52.5284C965.09 52.5284 966.34 52.8565 967.407 53.5128C968.474 54.169 969.303 55.0904 969.893 56.277C970.483 57.4635 970.778 58.849 970.778 60.4332C970.778 62.0109 970.483 63.3897 969.893 64.5696C969.303 65.7495 968.474 66.6676 967.407 67.3239C966.34 67.9801 965.09 68.3082 963.658 68.3082ZM963.668 65.8125C964.596 65.8125 965.365 65.5672 965.975 65.0767C966.585 64.5862 967.036 63.9332 967.327 63.1179C967.626 62.3026 967.775 61.4044 967.775 60.4233C967.775 59.4489 967.626 58.554 967.327 57.7386C967.036 56.9167 966.585 56.2571 965.975 55.7599C965.365 55.2628 964.596 55.0142 963.668 55.0142C962.734 55.0142 961.958 55.2628 961.342 55.7599C960.732 56.2571 960.278 56.9167 959.979 57.7386C959.688 58.554 959.542 59.4489 959.542 60.4233C959.542 61.4044 959.688 62.3026 959.979 63.1179C960.278 63.9332 960.732 64.5862 961.342 65.0767C961.958 65.5672 962.734 65.8125 963.668 65.8125ZM973.096 68V52.7273H975.97V55.1534H976.129C976.407 54.3314 976.898 53.6851 977.6 53.2145C978.31 52.7372 979.112 52.4986 980.007 52.4986C980.192 52.4986 980.411 52.5052 980.663 52.5185C980.922 52.5317 981.124 52.5483 981.27 52.5682V55.4119C981.15 55.3788 980.938 55.3423 980.633 55.3026C980.328 55.2562 980.023 55.233 979.718 55.233C979.016 55.233 978.389 55.3821 977.839 55.6804C977.296 55.9721 976.865 56.3797 976.547 56.9034C976.228 57.4205 976.069 58.0104 976.069 58.6733V68H973.096ZM988.013 68.2983C986.78 68.2983 985.679 67.9834 984.712 67.3537C983.75 66.7173 982.995 65.8125 982.445 64.6392C981.901 63.4593 981.629 62.044 981.629 60.3935C981.629 58.7429 981.904 57.331 982.455 56.1577C983.011 54.9844 983.774 54.0862 984.741 53.4631C985.709 52.84 986.806 52.5284 988.033 52.5284C988.981 52.5284 989.743 52.6875 990.32 53.0057C990.903 53.3172 991.354 53.6818 991.672 54.0994C991.997 54.517 992.249 54.8849 992.428 55.2031H992.607V47.6364H995.58V68H992.676V65.6236H992.428C992.249 65.9484 991.99 66.3196 991.652 66.7372C991.321 67.1548 990.863 67.5194 990.28 67.831C989.696 68.1425 988.941 68.2983 988.013 68.2983ZM988.669 65.7628C989.524 65.7628 990.247 65.5374 990.837 65.0866C991.433 64.6293 991.884 63.9962 992.189 63.1875C992.5 62.3788 992.656 61.4375 992.656 60.3636C992.656 59.303 992.504 58.375 992.199 57.5795C991.894 56.7841 991.446 56.1643 990.857 55.7202C990.267 55.276 989.537 55.054 988.669 55.054C987.774 55.054 987.028 55.286 986.432 55.75C985.835 56.214 985.384 56.8471 985.08 57.6491C984.781 58.4512 984.632 59.3561 984.632 60.3636C984.632 61.3845 984.785 62.3026 985.089 63.1179C985.394 63.9332 985.845 64.5795 986.442 65.0568C987.045 65.5275 987.787 65.7628 988.669 65.7628ZM1005.41 68.3082C1003.9 68.3082 1002.6 67.9867 1001.52 67.3438C1000.44 66.6941 999.602 65.7827 999.012 64.6094C998.428 63.4295 998.137 62.0473 998.137 60.4631C998.137 58.8987 998.428 57.5199 999.012 56.3267C999.602 55.1335 1000.42 54.2022 1001.48 53.5327C1002.54 52.8632 1003.78 52.5284 1005.2 52.5284C1006.06 52.5284 1006.89 52.6709 1007.7 52.956C1008.51 53.241 1009.24 53.6884 1009.88 54.2983C1010.52 54.9081 1011.03 55.7003 1011.4 56.6747C1011.77 57.6425 1011.96 58.8191 1011.96 60.2045V61.2585H999.817V59.0312H1009.04C1009.04 58.2491 1008.89 57.5563 1008.57 56.9531C1008.25 56.3433 1007.8 55.8627 1007.22 55.5114C1006.65 55.16 1005.99 54.9844 1005.22 54.9844C1004.38 54.9844 1003.65 55.1899 1003.03 55.6009C1002.41 56.0052 1001.94 56.5355 1001.6 57.1918C1001.27 57.8414 1001.1 58.5473 1001.1 59.3097V61.0497C1001.1 62.0705 1001.28 62.9389 1001.64 63.6548C1002 64.3707 1002.51 64.9176 1003.16 65.2955C1003.81 65.6667 1004.57 65.8523 1005.44 65.8523C1006 65.8523 1006.51 65.7727 1006.98 65.6136C1007.44 65.4479 1007.84 65.2027 1008.18 64.8778C1008.52 64.553 1008.78 64.152 1008.95 63.6747L1011.77 64.1818C1011.54 65.0104 1011.14 65.7363 1010.56 66.3594C1009.98 66.9759 1009.25 67.4564 1008.38 67.8011C1007.51 68.1392 1006.52 68.3082 1005.41 68.3082ZM1014.26 68V52.7273H1017.13V55.1534H1017.29C1017.57 54.3314 1018.06 53.6851 1018.76 53.2145C1019.47 52.7372 1020.27 52.4986 1021.17 52.4986C1021.35 52.4986 1021.57 52.5052 1021.82 52.5185C1022.08 52.5317 1022.28 52.5483 1022.43 52.5682V55.4119C1022.31 55.3788 1022.1 55.3423 1021.79 55.3026C1021.49 55.2562 1021.18 55.233 1020.88 55.233C1020.18 55.233 1019.55 55.3821 1019 55.6804C1018.46 55.9721 1018.02 56.3797 1017.71 56.9034C1017.39 57.4205 1017.23 58.0104 1017.23 58.6733V68H1014.26ZM1037.68 52.7273V55.1136H1029.05V52.7273H1037.68ZM1031.42 68V50.9574C1031.42 50.0028 1031.63 49.2107 1032.04 48.581C1032.46 47.9446 1033.01 47.4706 1033.7 47.1591C1034.39 46.8409 1035.14 46.6818 1035.95 46.6818C1036.55 46.6818 1037.06 46.7315 1037.48 46.831C1037.91 46.9238 1038.22 47.0099 1038.43 47.0895L1037.73 49.4957C1037.59 49.456 1037.41 49.4096 1037.19 49.3565C1036.98 49.2969 1036.71 49.267 1036.4 49.267C1035.68 49.267 1035.16 49.446 1034.85 49.804C1034.54 50.1619 1034.39 50.679 1034.39 51.3551V68H1031.42ZM1045.58 68.3082C1044.15 68.3082 1042.9 67.9801 1041.83 67.3239C1040.76 66.6676 1039.94 65.7495 1039.35 64.5696C1038.76 63.3897 1038.46 62.0109 1038.46 60.4332C1038.46 58.849 1038.76 57.4635 1039.35 56.277C1039.94 55.0904 1040.76 54.169 1041.83 53.5128C1042.9 52.8565 1044.15 52.5284 1045.58 52.5284C1047.01 52.5284 1048.26 52.8565 1049.33 53.5128C1050.4 54.169 1051.22 55.0904 1051.81 56.277C1052.4 57.4635 1052.7 58.849 1052.7 60.4332C1052.7 62.0109 1052.4 63.3897 1051.81 64.5696C1051.22 65.7495 1050.4 66.6676 1049.33 67.3239C1048.26 67.9801 1047.01 68.3082 1045.58 68.3082ZM1045.59 65.8125C1046.52 65.8125 1047.29 65.5672 1047.9 65.0767C1048.51 64.5862 1048.96 63.9332 1049.25 63.1179C1049.55 62.3026 1049.7 61.4044 1049.7 60.4233C1049.7 59.4489 1049.55 58.554 1049.25 57.7386C1048.96 56.9167 1048.51 56.2571 1047.9 55.7599C1047.29 55.2628 1046.52 55.0142 1045.59 55.0142C1044.66 55.0142 1043.88 55.2628 1043.26 55.7599C1042.65 56.2571 1042.2 56.9167 1041.9 57.7386C1041.61 58.554 1041.46 59.4489 1041.46 60.4233C1041.46 61.4044 1041.61 62.3026 1041.9 63.1179C1042.2 63.9332 1042.65 64.5862 1043.26 65.0767C1043.88 65.5672 1044.66 65.8125 1045.59 65.8125ZM1055.02 68V52.7273H1057.89V55.1534H1058.05C1058.33 54.3314 1058.82 53.6851 1059.52 53.2145C1060.23 52.7372 1061.03 52.4986 1061.93 52.4986C1062.11 52.4986 1062.33 52.5052 1062.58 52.5185C1062.84 52.5317 1063.05 52.5483 1063.19 52.5682V55.4119C1063.07 55.3788 1062.86 55.3423 1062.56 55.3026C1062.25 55.2562 1061.95 55.233 1061.64 55.233C1060.94 55.233 1060.31 55.3821 1059.76 55.6804C1059.22 55.9721 1058.79 56.3797 1058.47 56.9034C1058.15 57.4205 1057.99 58.0104 1057.99 58.6733V68H1055.02ZM1073.05 73.7273C1072.61 73.7273 1072.21 73.6908 1071.84 73.6179C1071.48 73.5516 1071.2 73.4787 1071.03 73.3991L1071.74 70.9631C1072.28 71.1089 1072.77 71.1719 1073.19 71.152C1073.62 71.1321 1073.99 70.973 1074.32 70.6747C1074.65 70.3764 1074.94 69.8892 1075.19 69.2131L1075.56 68.1989L1069.97 52.7273H1073.15L1077.02 64.5795H1077.18L1081.05 52.7273H1084.24L1077.95 70.0384C1077.65 70.8338 1077.28 71.5066 1076.83 72.0568C1076.38 72.6136 1075.84 73.0313 1075.22 73.3097C1074.6 73.5881 1073.88 73.7273 1073.05 73.7273ZM1091.95 68.3082C1090.52 68.3082 1089.27 67.9801 1088.2 67.3239C1087.13 66.6676 1086.3 65.7495 1085.71 64.5696C1085.12 63.3897 1084.83 62.0109 1084.83 60.4332C1084.83 58.849 1085.12 57.4635 1085.71 56.277C1086.3 55.0904 1087.13 54.169 1088.2 53.5128C1089.27 52.8565 1090.52 52.5284 1091.95 52.5284C1093.38 52.5284 1094.63 52.8565 1095.7 53.5128C1096.76 54.169 1097.59 55.0904 1098.18 56.277C1098.77 57.4635 1099.07 58.849 1099.07 60.4332C1099.07 62.0109 1098.77 63.3897 1098.18 64.5696C1097.59 65.7495 1096.76 66.6676 1095.7 67.3239C1094.63 67.9801 1093.38 68.3082 1091.95 68.3082ZM1091.96 65.8125C1092.89 65.8125 1093.65 65.5672 1094.26 65.0767C1094.87 64.5862 1095.32 63.9332 1095.62 63.1179C1095.91 62.3026 1096.06 61.4044 1096.06 60.4233C1096.06 59.4489 1095.91 58.554 1095.62 57.7386C1095.32 56.9167 1094.87 56.2571 1094.26 55.7599C1093.65 55.2628 1092.89 55.0142 1091.96 55.0142C1091.02 55.0142 1090.25 55.2628 1089.63 55.7599C1089.02 56.2571 1088.57 56.9167 1088.27 57.7386C1087.98 58.554 1087.83 59.4489 1087.83 60.4233C1087.83 61.4044 1087.98 62.3026 1088.27 63.1179C1088.57 63.9332 1089.02 64.5862 1089.63 65.0767C1090.25 65.5672 1091.02 65.8125 1091.96 65.8125ZM1111.06 61.6662V52.7273H1114.04V68H1111.12V65.3551H1110.96C1110.61 66.1705 1110.05 66.8499 1109.27 67.3935C1108.5 67.9304 1107.54 68.1989 1106.4 68.1989C1105.42 68.1989 1104.55 67.9834 1103.79 67.5526C1103.04 67.1151 1102.45 66.4688 1102.02 65.6136C1101.6 64.7585 1101.39 63.7012 1101.39 62.4418V52.7273H1104.36V62.0838C1104.36 63.1245 1104.65 63.9531 1105.22 64.5696C1105.8 65.1861 1106.55 65.4943 1107.47 65.4943C1108.03 65.4943 1108.58 65.3551 1109.13 65.0767C1109.69 64.7983 1110.15 64.3774 1110.51 63.8139C1110.88 63.2505 1111.07 62.5346 1111.06 61.6662ZM1119 68.1889C1118.45 68.1889 1117.99 67.9967 1117.59 67.6122C1117.2 67.2211 1117.01 66.7505 1117.01 66.2003C1117.01 65.6567 1117.2 65.1927 1117.59 64.8082C1117.99 64.4171 1118.45 64.2216 1119 64.2216C1119.54 64.2216 1120.01 64.4171 1120.4 64.8082C1120.79 65.1927 1120.99 65.6567 1120.99 66.2003C1120.99 66.5649 1120.89 66.8996 1120.71 67.2045C1120.53 67.5028 1120.29 67.7415 1119.99 67.9205C1119.69 68.0994 1119.36 68.1889 1119 68.1889Z" fill="white"/>
<path d="M1179.25 54.2585H1176.15C1176.03 53.5956 1175.81 53.0123 1175.48 52.5085C1175.16 52.0047 1174.76 51.5772 1174.29 51.2259C1173.82 50.8745 1173.29 50.6094 1172.71 50.4304C1172.13 50.2514 1171.52 50.1619 1170.87 50.1619C1169.7 50.1619 1168.65 50.4569 1167.72 51.0469C1166.8 51.6368 1166.07 52.5019 1165.53 53.642C1165 54.7822 1164.74 56.1742 1164.74 57.8182C1164.74 59.4754 1165 60.8741 1165.53 62.0142C1166.07 63.1544 1166.8 64.0161 1167.73 64.5994C1168.66 65.1828 1169.7 65.4744 1170.86 65.4744C1171.5 65.4744 1172.11 65.3883 1172.69 65.2159C1173.27 65.0369 1173.8 64.7751 1174.27 64.4304C1174.74 64.0857 1175.14 63.6648 1175.46 63.1676C1175.8 62.6638 1176.02 62.0871 1176.15 61.4375L1179.25 61.4474C1179.09 62.4484 1178.76 63.3698 1178.29 64.2116C1177.82 65.0469 1177.21 65.7694 1176.47 66.3793C1175.73 66.9825 1174.89 67.4498 1173.94 67.7812C1172.99 68.1127 1171.96 68.2784 1170.84 68.2784C1169.08 68.2784 1167.51 67.8608 1166.13 67.0256C1164.75 66.1837 1163.66 64.9806 1162.87 63.4162C1162.08 61.8518 1161.68 59.9858 1161.68 57.8182C1161.68 55.6439 1162.08 53.7779 1162.88 52.2202C1163.67 50.6558 1164.76 49.456 1166.14 48.6207C1167.52 47.7789 1169.08 47.358 1170.84 47.358C1171.92 47.358 1172.93 47.5137 1173.86 47.8253C1174.8 48.1302 1175.65 48.581 1176.4 49.1776C1177.15 49.7675 1177.77 50.4901 1178.26 51.3452C1178.75 52.1937 1179.08 53.1648 1179.25 54.2585ZM1188.12 68.3082C1186.69 68.3082 1185.44 67.9801 1184.37 67.3239C1183.31 66.6676 1182.48 65.7495 1181.89 64.5696C1181.3 63.3897 1181 62.0109 1181 60.4332C1181 58.849 1181.3 57.4635 1181.89 56.277C1182.48 55.0904 1183.31 54.169 1184.37 53.5128C1185.44 52.8565 1186.69 52.5284 1188.12 52.5284C1189.56 52.5284 1190.8 52.8565 1191.87 53.5128C1192.94 54.169 1193.77 55.0904 1194.36 56.277C1194.95 57.4635 1195.24 58.849 1195.24 60.4332C1195.24 62.0109 1194.95 63.3897 1194.36 64.5696C1193.77 65.7495 1192.94 66.6676 1191.87 67.3239C1190.8 67.9801 1189.56 68.3082 1188.12 68.3082ZM1188.13 65.8125C1189.06 65.8125 1189.83 65.5672 1190.44 65.0767C1191.05 64.5862 1191.5 63.9332 1191.79 63.1179C1192.09 62.3026 1192.24 61.4044 1192.24 60.4233C1192.24 59.4489 1192.09 58.554 1191.79 57.7386C1191.5 56.9167 1191.05 56.2571 1190.44 55.7599C1189.83 55.2628 1189.06 55.0142 1188.13 55.0142C1187.2 55.0142 1186.42 55.2628 1185.81 55.7599C1185.2 56.2571 1184.74 56.9167 1184.44 57.7386C1184.15 58.554 1184.01 59.4489 1184.01 60.4233C1184.01 61.4044 1184.15 62.3026 1184.44 63.1179C1184.74 63.9332 1185.2 64.5862 1185.81 65.0767C1186.42 65.5672 1187.2 65.8125 1188.13 65.8125ZM1200.53 58.9318V68H1197.56V52.7273H1200.41V55.2131H1200.6C1200.96 54.4044 1201.51 53.7547 1202.25 53.2642C1203.01 52.7737 1203.96 52.5284 1205.11 52.5284C1206.15 52.5284 1207.06 52.7472 1207.84 53.1847C1208.62 53.6155 1209.23 54.2585 1209.66 55.1136C1210.09 55.9687 1210.31 57.026 1210.31 58.2855V68H1207.34V58.6435C1207.34 57.5365 1207.05 56.6714 1206.47 56.0483C1205.89 55.4186 1205.1 55.1037 1204.09 55.1037C1203.4 55.1037 1202.79 55.2528 1202.25 55.5511C1201.72 55.8494 1201.3 56.2869 1200.99 56.8636C1200.69 57.4337 1200.53 58.1231 1200.53 58.9318ZM1220.42 52.7273V55.1136H1212.08V52.7273H1220.42ZM1214.32 49.0682H1217.29V63.5156C1217.29 64.0923 1217.38 64.5265 1217.55 64.8182C1217.72 65.1032 1217.95 65.2988 1218.22 65.4048C1218.5 65.5043 1218.8 65.554 1219.12 65.554C1219.36 65.554 1219.57 65.5374 1219.75 65.5043C1219.93 65.4711 1220.07 65.4446 1220.17 65.4247L1220.7 67.8807C1220.53 67.947 1220.29 68.0133 1219.97 68.0795C1219.65 68.1525 1219.25 68.1922 1218.77 68.1989C1217.99 68.2121 1217.26 68.0729 1216.59 67.7812C1215.91 67.4896 1215.36 67.0388 1214.95 66.429C1214.53 65.8191 1214.32 65.0535 1214.32 64.1321V49.0682ZM1227.16 68.3381C1226.19 68.3381 1225.32 68.1591 1224.53 67.8011C1223.75 67.4366 1223.13 66.9096 1222.67 66.2202C1222.22 65.5308 1222 64.6856 1222 63.6847C1222 62.8229 1222.16 62.1136 1222.49 61.5568C1222.83 61 1223.27 60.5592 1223.84 60.2344C1224.4 59.9096 1225.03 59.6643 1225.73 59.4986C1226.42 59.3329 1227.13 59.2069 1227.85 59.1207C1228.77 59.0147 1229.51 58.9285 1230.08 58.8622C1230.65 58.7893 1231.07 58.6733 1231.32 58.5142C1231.58 58.3551 1231.71 58.0966 1231.71 57.7386V57.669C1231.71 56.8007 1231.47 56.1278 1230.98 55.6506C1230.49 55.1733 1229.77 54.9347 1228.81 54.9347C1227.81 54.9347 1227.02 55.1567 1226.44 55.6009C1225.87 56.0384 1225.48 56.5256 1225.26 57.0625L1222.46 56.4261C1222.8 55.4981 1223.28 54.7491 1223.92 54.179C1224.56 53.6023 1225.3 53.1847 1226.13 52.9261C1226.97 52.661 1227.85 52.5284 1228.77 52.5284C1229.38 52.5284 1230.02 52.6013 1230.71 52.7472C1231.4 52.8864 1232.04 53.1449 1232.64 53.5227C1233.24 53.9006 1233.73 54.4408 1234.12 55.1435C1234.5 55.8395 1234.69 56.7443 1234.69 57.858V68H1231.79V65.9119H1231.67C1231.48 66.2964 1231.19 66.6742 1230.81 67.0455C1230.42 67.4167 1229.93 67.7249 1229.33 67.9702C1228.72 68.2154 1228 68.3381 1227.16 68.3381ZM1227.8 65.9517C1228.63 65.9517 1229.33 65.7893 1229.91 65.4645C1230.5 65.1397 1230.95 64.7154 1231.25 64.1918C1231.57 63.6615 1231.72 63.0947 1231.72 62.4915V60.5227C1231.62 60.6288 1231.41 60.7282 1231.11 60.821C1230.81 60.9072 1230.47 60.9834 1230.08 61.0497C1229.7 61.1094 1229.32 61.1657 1228.96 61.2188C1228.59 61.2652 1228.29 61.3049 1228.04 61.3381C1227.47 61.411 1226.94 61.5336 1226.46 61.706C1225.99 61.8783 1225.61 62.1269 1225.33 62.4517C1225.05 62.7699 1224.91 63.1941 1224.91 63.7244C1224.91 64.4602 1225.18 65.017 1225.73 65.3949C1226.27 65.7661 1226.96 65.9517 1227.8 65.9517ZM1244.09 68.3082C1242.61 68.3082 1241.34 67.9735 1240.27 67.304C1239.21 66.6278 1238.39 65.6965 1237.82 64.5099C1237.25 63.3234 1236.97 61.9645 1236.97 60.4332C1236.97 58.8821 1237.26 57.5133 1237.84 56.3267C1238.43 55.1335 1239.25 54.2022 1240.31 53.5327C1241.37 52.8632 1242.62 52.5284 1244.06 52.5284C1245.22 52.5284 1246.25 52.7438 1247.16 53.1747C1248.07 53.599 1248.8 54.1955 1249.36 54.9645C1249.92 55.7334 1250.26 56.6316 1250.36 57.6591H1247.47C1247.31 56.9432 1246.95 56.3267 1246.38 55.8097C1245.81 55.2926 1245.06 55.0341 1244.11 55.0341C1243.28 55.0341 1242.55 55.2528 1241.93 55.6903C1241.31 56.1212 1240.83 56.7377 1240.49 57.5398C1240.14 58.3352 1239.97 59.2765 1239.97 60.3636C1239.97 61.4773 1240.14 62.4384 1240.48 63.2472C1240.82 64.0559 1241.29 64.6823 1241.91 65.1264C1242.53 65.5705 1243.27 65.7926 1244.11 65.7926C1244.67 65.7926 1245.18 65.6899 1245.64 65.4844C1246.1 65.2723 1246.49 64.9706 1246.8 64.5795C1247.12 64.1884 1247.34 63.7178 1247.47 63.1676H1250.36C1250.26 64.1553 1249.93 65.0369 1249.4 65.8125C1248.86 66.5881 1248.14 67.1979 1247.24 67.642C1246.35 68.0862 1245.29 68.3082 1244.09 68.3082ZM1259.67 52.7273V55.1136H1251.33V52.7273H1259.67ZM1253.57 49.0682H1256.54V63.5156C1256.54 64.0923 1256.62 64.5265 1256.8 64.8182C1256.97 65.1032 1257.19 65.2988 1257.46 65.4048C1257.74 65.5043 1258.04 65.554 1258.37 65.554C1258.61 65.554 1258.82 65.5374 1258.99 65.5043C1259.17 65.4711 1259.31 65.4446 1259.41 65.4247L1259.95 67.8807C1259.78 67.947 1259.53 68.0133 1259.21 68.0795C1258.9 68.1525 1258.5 68.1922 1258.02 68.1989C1257.24 68.2121 1256.51 68.0729 1255.83 67.7812C1255.16 67.4896 1254.61 67.0388 1254.19 66.429C1253.77 65.8191 1253.57 65.0535 1253.57 64.1321V49.0682ZM1278.04 61.6662V52.7273H1281.03V68H1278.1V65.3551H1277.94C1277.59 66.1705 1277.03 66.8499 1276.25 67.3935C1275.49 67.9304 1274.53 68.1989 1273.38 68.1989C1272.4 68.1989 1271.53 67.9834 1270.78 67.5526C1270.03 67.1151 1269.44 66.4688 1269.01 65.6136C1268.58 64.7585 1268.37 63.7012 1268.37 62.4418V52.7273H1271.34V62.0838C1271.34 63.1245 1271.63 63.9531 1272.21 64.5696C1272.78 65.1861 1273.53 65.4943 1274.45 65.4943C1275.01 65.4943 1275.57 65.3551 1276.12 65.0767C1276.67 64.7983 1277.13 64.3774 1277.5 63.8139C1277.87 63.2505 1278.05 62.5346 1278.04 61.6662ZM1295.47 56.456L1292.77 56.9332C1292.66 56.5885 1292.48 56.2604 1292.24 55.9489C1292 55.6373 1291.67 55.3821 1291.26 55.1832C1290.85 54.9844 1290.34 54.8849 1289.72 54.8849C1288.88 54.8849 1288.17 55.0739 1287.61 55.4517C1287.05 55.8229 1286.77 56.3035 1286.77 56.8935C1286.77 57.4039 1286.96 57.8149 1287.33 58.1264C1287.71 58.438 1288.32 58.6932 1289.16 58.892L1291.59 59.4489C1292.99 59.7737 1294.04 60.2741 1294.73 60.9503C1295.42 61.6264 1295.76 62.5047 1295.76 63.5852C1295.76 64.5 1295.5 65.3153 1294.97 66.0312C1294.45 66.7405 1293.71 67.2973 1292.77 67.7017C1291.84 68.1061 1290.75 68.3082 1289.52 68.3082C1287.81 68.3082 1286.42 67.9437 1285.33 67.2145C1284.25 66.4787 1283.59 65.4347 1283.35 64.0824L1286.22 63.6449C1286.4 64.3939 1286.77 64.9607 1287.32 65.3452C1287.88 65.723 1288.61 65.9119 1289.5 65.9119C1290.48 65.9119 1291.25 65.7098 1291.84 65.3054C1292.42 64.8944 1292.71 64.3939 1292.71 63.804C1292.71 63.3267 1292.53 62.9257 1292.18 62.6009C1291.82 62.276 1291.28 62.0308 1290.55 61.8651L1287.97 61.2983C1286.54 60.9735 1285.49 60.4564 1284.81 59.7472C1284.13 59.0379 1283.79 58.1397 1283.79 57.0526C1283.79 56.151 1284.05 55.3622 1284.55 54.6861C1285.05 54.0099 1285.75 53.483 1286.64 53.1051C1287.53 52.7206 1288.54 52.5284 1289.69 52.5284C1291.34 52.5284 1292.64 52.8864 1293.59 53.6023C1294.54 54.3116 1295.16 55.2628 1295.47 56.456ZM1299.99 68.1889C1299.45 68.1889 1298.98 67.9967 1298.59 67.6122C1298.2 67.2211 1298 66.7505 1298 66.2003C1298 65.6567 1298.2 65.1927 1298.59 64.8082C1298.98 64.4171 1299.45 64.2216 1299.99 64.2216C1300.54 64.2216 1301 64.4171 1301.39 64.8082C1301.79 65.1927 1301.98 65.6567 1301.98 66.2003C1301.98 66.5649 1301.89 66.8996 1301.7 67.2045C1301.52 67.5028 1301.29 67.7415 1300.99 67.9205C1300.69 68.0994 1300.36 68.1889 1299.99 68.1889Z" fill="#6FEAE7"/>
</svg>
